<!-- filepath: /home/zen/Documents/rdv-image-generator/assets/images/placeholders/gradient-bg.svg -->
<svg width="1920" height="1080" viewBox="0 0 1920 1080" xmlns="http://www.w3.org/2000/svg">
  <defs>
    <!-- Primary gradient backgrounds -->
    <linearGradient id="primaryGradient" x1="0%" y1="0%" x2="100%" y2="100%">
      <stop offset="0%" style="stop-color:#667eea;stop-opacity:1" />
      <stop offset="25%" style="stop-color:#764ba2;stop-opacity:0.95" />
      <stop offset="50%" style="stop-color:#f093fb;stop-opacity:0.9" />
      <stop offset="75%" style="stop-color:#f5576c;stop-opacity:0.95" />
      <stop offset="100%" style="stop-color:#4facfe;stop-opacity:1" />
    </linearGradient>
    
    <!-- Secondary overlay gradient -->
    <linearGradient id="secondaryGradient" x1="100%" y1="0%" x2="0%" y2="100%">
      <stop offset="0%" style="stop-color:#43e97b;stop-opacity:0.1" />
      <stop offset="30%" style="stop-color:#38f9d7;stop-opacity:0.08" />
      <stop offset="70%" style="stop-color:#4facfe;stop-opacity:0.06" />
      <stop offset="100%" style="stop-color:#00f2fe;stop-opacity:0.1" />
    </linearGradient>
    
    <!-- Radial gradient for depth -->
    <radialGradient id="radialDepth" cx="30%" cy="40%" r="80%">
      <stop offset="0%" style="stop-color:#ffffff;stop-opacity:0.15" />
      <stop offset="40%" style="stop-color:#ffffff;stop-opacity:0.05" />
      <stop offset="100%" style="stop-color:#000000;stop-opacity:0.1" />
    </radialGradient>
    
    <!-- Mesh gradient effect -->
    <linearGradient id="meshGradient1" x1="0%" y1="0%" x2="50%" y2="50%">
      <stop offset="0%" style="stop-color:#667eea;stop-opacity:0.3" />
      <stop offset="100%" style="stop-color:#764ba2;stop-opacity:0.1" />
    </linearGradient>
    
    <linearGradient id="meshGradient2" x1="50%" y1="50%" x2="100%" y2="100%">
      <stop offset="0%" style="stop-color:#f093fb;stop-opacity:0.2" />
      <stop offset="100%" style="stop-color:#f5576c;stop-opacity:0.1" />
    </linearGradient>
    
    <linearGradient id="meshGradient3" x1="100%" y1="0%" x2="50%" y2="100%">
      <stop offset="0%" style="stop-color:#4facfe;stop-opacity:0.25" />
      <stop offset="100%" style="stop-color:#00f2fe;stop-opacity:0.1" />
    </linearGradient>
    
    <linearGradient id="meshGradient4" x1="0%" y1="100%" x2="100%" y2="0%">
      <stop offset="0%" style="stop-color:#43e97b;stop-opacity:0.2" />
      <stop offset="100%" style="stop-color:#38f9d7;stop-opacity:0.1" />
    </linearGradient>
    
    <!-- Noise pattern for texture -->
    <filter id="noiseFilter" x="0%" y="0%" width="100%" height="100%">
      <feTurbulence baseFrequency="0.02" numOctaves="4" result="noise"/>
      <feColorMatrix in="noise" type="saturate" values="0"/>
      <feComponentTransfer>
        <feFuncA type="discrete" tableValues="0.02 0.04 0.02 0.08"/>
      </feComponentTransfer>
      <feComposite operator="over" in2="SourceGraphic"/>
    </filter>
    
    <!-- Smooth blur for soft edges -->
    <filter id="softBlur" x="-50%" y="-50%" width="200%" height="200%">
      <feGaussianBlur in="SourceGraphic" stdDeviation="3"/>
    </filter>
    
    <!-- Gradient orbs pattern -->
    <pattern id="gradientOrbs" x="0" y="0" width="400" height="400" patternUnits="userSpaceOnUse">
      <!-- Large orb -->
      <circle cx="200" cy="200" r="80" fill="url(#meshGradient1)" opacity="0.3" filter="url(#softBlur)"/>
      
      <!-- Medium orbs -->
      <circle cx="100" cy="100" r="40" fill="url(#meshGradient2)" opacity="0.4" filter="url(#softBlur)"/>
      <circle cx="300" cy="300" r="45" fill="url(#meshGradient3)" opacity="0.35" filter="url(#softBlur)"/>
      
      <!-- Small orbs -->
      <circle cx="350" cy="100" r="25" fill="url(#meshGradient4)" opacity="0.5" filter="url(#softBlur)"/>
      <circle cx="50" cy="350" r="20" fill="url(#meshGradient1)" opacity="0.6" filter="url(#softBlur)"/>
      <circle cx="150" cy="300" r="15" fill="url(#meshGradient2)" opacity="0.4" filter="url(#softBlur)"/>
      <circle cx="250" cy="50" r="18" fill="url(#meshGradient3)" opacity="0.45" filter="url(#softBlur)"/>
    </pattern>
    
    <!-- Flowing lines pattern -->
    <pattern id="flowingLines" x="0" y="0" width="500" height="300" patternUnits="userSpaceOnUse">
      <!-- Curved flowing lines -->
      <path d="M0,150 Q125,100 250,150 T500,150" stroke="url(#meshGradient1)" stroke-width="2" fill="none" opacity="0.3"/>
      <path d="M0,180 Q125,130 250,180 T500,180" stroke="url(#meshGradient2)" stroke-width="1.5" fill="none" opacity="0.25"/>
      <path d="M0,120 Q125,70 250,120 T500,120" stroke="url(#meshGradient3)" stroke-width="1.8" fill="none" opacity="0.28"/>
      
      <!-- Connecting dots -->
      <circle cx="125" cy="100" r="2" fill="url(#meshGradient1)" opacity="0.4"/>
      <circle cx="375" cy="150" r="1.5" fill="url(#meshGradient2)" opacity="0.5"/>
      <circle cx="250" cy="180" r="1.8" fill="url(#meshGradient3)" opacity="0.45"/>
    </pattern>
    
    <!-- Geometric accent pattern -->
    <pattern id="geometricAccents" x="0" y="0" width="300" height="300" patternUnits="userSpaceOnUse">
      <!-- Triangular elements -->
      <polygon points="150,50 200,50 175,100" fill="url(#meshGradient1)" opacity="0.15" filter="url(#softBlur)"/>
      <polygon points="50,200 100,200 75,250" fill="url(#meshGradient2)" opacity="0.12" filter="url(#softBlur)"/>
      <polygon points="250,180 280,180 265,210" fill="url(#meshGradient3)" opacity="0.18" filter="url(#softBlur)"/>
      
      <!-- Rectangular elements -->
      <rect x="100" y="80" width="40" height="40" fill="url(#meshGradient4)" opacity="0.1" rx="5" transform="rotate(45 120 100)" filter="url(#softBlur)"/>
      <rect x="200" y="220" width="30" height="30" fill="url(#meshGradient1)" opacity="0.12" rx="3" transform="rotate(-30 215 235)" filter="url(#softBlur)"/>
      
      <!-- Circular accents -->
      <circle cx="80" cy="150" r="8" fill="url(#meshGradient2)" opacity="0.2" filter="url(#softBlur)"/>
      <circle cx="220" cy="120" r="6" fill="url(#meshGradient3)" opacity="0.25" filter="url(#softBlur)"/>
    </pattern>
  </defs>
  
  <!-- Base gradient -->
  <rect width="1920" height="1080" fill="url(#primaryGradient)"/>
  
  <!-- Secondary overlay -->
  <rect width="1920" height="1080" fill="url(#secondaryGradient)"/>
  
  <!-- Mesh gradient sections -->
  <g opacity="0.8">
    <!-- Top-left mesh -->
    <rect x="0" y="0" width="960" height="540" fill="url(#meshGradient1)"/>
    
    <!-- Top-right mesh -->
    <rect x="960" y="0" width="960" height="540" fill="url(#meshGradient2)"/>
    
    <!-- Bottom-left mesh -->
    <rect x="0" y="540" width="960" height="540" fill="url(#meshGradient3)"/>
    
    <!-- Bottom-right mesh -->
    <rect x="960" y="540" width="960" height="540" fill="url(#meshGradient4)"/>
  </g>
  
  <!-- Radial depth overlay -->
  <rect width="1920" height="1080" fill="url(#radialDepth)"/>
  
  <!-- Gradient orbs layer -->
  <rect width="1920" height="1080" fill="url(#gradientOrbs)" opacity="0.6"/>
  
  <!-- Flowing lines layer -->
  <rect width="1920" height="1080" fill="url(#flowingLines)" opacity="0.4"/>
  
  <!-- Geometric accents layer -->
  <rect width="1920" height="1080" fill="url(#geometricAccents)" opacity="0.3"/>
  
  <!-- Large flowing elements for movement -->
  <g opacity="0.15" filter="url(#softBlur)">
    <!-- Large flowing shape top -->
    <ellipse cx="480" cy="-100" rx="300" ry="200" fill="url(#meshGradient1)" transform="rotate(15 480 -100)"/>
    
    <!-- Large flowing shape middle -->
    <ellipse cx="1200" cy="540" rx="400" ry="250" fill="url(#meshGradient2)" transform="rotate(-20 1200 540)"/>
    
    <!-- Large flowing shape bottom -->
    <ellipse cx="600" cy="1180" rx="350" ry="180" fill="url(#meshGradient3)" transform="rotate(25 600 1180)"/>
    
    <!-- Side accent -->
    <ellipse cx="-150" cy="400" rx="200" ry="300" fill="url(#meshGradient4)" transform="rotate(45 -150 400)"/>
    <ellipse cx="2070" cy="700" rx="250" ry="200" fill="url(#meshGradient1)" transform="rotate(-35 2070 700)"/>
  </g>
  
  <!-- Floating accent elements -->
  <g opacity="0.2">
    <!-- Top floating elements -->
    <circle cx="300" cy="200" r="80" fill="url(#meshGradient2)" filter="url(#softBlur)"/>
    <circle cx="1600" cy="150" r="60" fill="url(#meshGradient3)" filter="url(#softBlur)"/>
    
    <!-- Middle floating elements -->
    <circle cx="200" cy="600" r="50" fill="url(#meshGradient4)" filter="url(#softBlur)"/>
    <circle cx="1700" cy="500" r="70" fill="url(#meshGradient1)" filter="url(#softBlur)"/>
    <circle cx="900" cy="400" r="40" fill="url(#meshGradient2)" filter="url(#softBlur)"/>
    
    <!-- Bottom floating elements -->
    <circle cx="500" cy="900" r="65" fill="url(#meshGradient3)" filter="url(#softBlur)"/>
    <circle cx="1400" cy="850" r="45" fill="url(#meshGradient4)" filter="url(#softBlur)"/>
  </g>
  
  <!-- Subtle texture overlay -->
  <rect width="1920" height="1080" fill="white" filter="url(#noiseFilter)" opacity="0.02"/>
  
  <!-- Final light overlay for cohesion -->
  <defs>
    <linearGradient id="finalOverlay" x1="0%" y1="0%" x2="100%" y2="100%">
      <stop offset="0%" style="stop-color:#ffffff;stop-opacity:0.03" />
      <stop offset="50%" style="stop-color:transparent;stop-opacity:0" />
      <stop offset="100%" style="stop-color:#000000;stop-opacity:0.02" />
    </linearGradient>
  </defs>
  <rect width="1920" height="1080" fill="url(#finalOverlay)"/>
  
  <!-- Brand color accents -->
  <g opacity="0.05">
    <!-- RDV brand color hints -->
    <circle cx="100" cy="100" r="30" fill="#667eea"/>
    <circle cx="1820" cy="980" r="25" fill="#764ba2"/>
    <circle cx="1820" cy="100" r="20" fill="#4facfe"/>
    <circle cx="100" cy="980" r="28" fill="#f093fb"/>
  </g>
</svg>