<?xml version="1.0" encoding="UTF-8"?>
<svg version="1.1" xmlns="http://www.w3.org/2000/svg" width="1902" height="1771">
<path d="M0 0 C1.88785318 0.79903957 3.77604456 1.59728049 5.66455078 2.39477539 C9.57306393 4.04597236 13.4801239 5.70054043 17.38623047 7.35742188 C22.90824354 9.69733793 28.43855521 12.01696298 33.97265625 14.328125 C34.84718445 14.69334763 35.72171265 15.05857025 36.6227417 15.43486023 C38.38565321 16.17094501 40.14859263 16.90696297 41.91156006 17.64291382 C58.3540599 24.50963459 74.77195047 31.43384203 91.18304443 38.37521362 C106.83855132 44.99517414 122.52214387 51.54589005 138.21688843 58.07220459 C153.65625686 64.49343576 169.07007784 70.97274138 184.46923828 77.48974609 C200.02515086 84.07161828 215.6097686 90.58245966 231.20617676 97.06771851 C245.02061517 102.81310242 258.81846251 108.59600592 272.59817505 114.42419434 C278.14799032 116.771319 283.69909973 119.11538193 289.25010681 121.45968628 C293.60693342 123.29972035 297.96337382 125.14065261 302.31884766 126.98388672 C333.28286905 140.07957741 363.52337844 151.86790791 397.1875 155.8125 C398.33347656 155.95558594 399.47945312 156.09867188 400.66015625 156.24609375 C445.11593431 160.62144979 487.04610905 145.929818 527.1875 128.8125 C528.96930664 128.05477295 528.96930664 128.05477295 530.78710938 127.28173828 C535.12121352 125.43427816 539.45153084 123.57844064 543.77587891 121.70825195 C555.18098635 116.7816761 566.65269163 112.01758054 578.125 107.25 C594.24955292 100.54765708 610.35572732 93.80436745 626.4375 87 C641.16443842 80.77000053 655.90605539 74.57768843 670.6706543 68.4375 C672.13591011 67.82813741 673.60116073 67.21876234 675.06640625 66.609375 C676.16353188 66.1531073 676.16353188 66.1531073 677.28282166 65.68762207 C686.6113617 61.80645319 695.93053537 57.90289781 705.25 54 C706.1494635 53.62334198 707.048927 53.24668396 707.97564697 52.85861206 C712.55040696 50.94286297 717.12508162 49.02691026 721.69970703 47.11083984 C729.80163952 43.71748923 737.9043707 40.32604669 746.00704956 36.93447876 C750.48389983 35.06056576 754.96069721 33.18652642 759.4375 31.3125 C761.22916641 30.5624994 763.02083308 29.8124994 764.8125 29.0625 C765.699375 28.69125 766.58625 28.32 767.5 27.9375 C775.5625 24.5625 775.5625 24.5625 778.24963379 23.43769836 C780.04256396 22.68713939 781.83545129 21.93647806 783.6282959 21.18571472 C788.08778646 19.31842826 792.54799035 17.45288573 797.00976562 15.59106445 C805.30778667 12.12631657 813.59787592 8.64558744 821.86364746 5.10446167 C825.71057109 3.45763682 829.561549 1.82041421 833.4128418 0.18383789 C835.22363247 -0.58875551 837.03249177 -1.36589598 838.83911133 -2.14819336 C866.63979235 -14.18242468 893.98664741 -20.25081731 923.33496094 -8.93359375 C948.15237055 1.06139884 966.79254783 20.13894995 977.33105469 44.64697266 C986.91864464 68.88925398 985.82585223 93.81196889 976.1875 117.8125 C972.35779669 126.44770535 968.0123641 134.84089023 963.73828125 143.26171875 C962.51514664 145.69069315 961.29583171 148.12157844 960.07646179 150.55244446 C957.2057759 156.27019061 954.32328218 161.98189015 951.43592089 167.6912306 C947.23267247 176.00378673 943.04689162 184.32513346 938.86173534 192.64680958 C938.23352586 193.89587385 937.60531295 195.1449364 936.97709656 196.39399719 C936.66927268 197.00609521 936.3614488 197.61819323 936.04429692 198.24883968 C933.97339589 202.36560144 931.89673319 206.47942102 929.81794739 210.59220886 C928.70585214 212.79673808 927.59376574 215.00127176 926.48168945 217.20581055 C925.76968887 218.61027939 925.76968887 218.61027939 925.04330444 220.04312134 C921.6006175 226.87590603 918.29264025 233.76698231 915.00382996 240.67488098 C909.41892633 252.39439073 903.6500316 264.01593644 897.83203125 275.62109375 C896.74464179 277.7939466 895.65743851 279.96689263 894.57040405 282.1399231 C891.95544052 287.36631891 889.33868031 292.59181212 886.72116828 297.81693196 C883.65642695 303.93519136 880.59440284 310.05480934 877.53259671 316.17453802 C872.05993455 327.11283764 866.58577659 338.05038785 861.11035156 348.98730469 C860.78450864 349.63816272 860.45866572 350.28902076 860.12294877 350.95960176 C857.48046317 356.2378311 854.83790369 361.51602345 852.19534111 366.79421425 C849.88507565 371.40869063 847.57483974 376.0231818 845.26464844 380.63769531 C844.93921433 381.28773541 844.61378021 381.9377755 844.27848446 382.60751379 C838.81980075 393.51111598 833.36273699 404.41552817 827.90679073 415.32050037 C824.85789488 421.4142508 821.80815385 427.50757536 818.7562561 433.599823 C815.8849426 439.33164762 813.01550823 445.06440913 810.14741898 450.79784775 C809.10458652 452.8816655 808.06107317 454.9651427 807.01676559 457.04822159 C801.33364625 468.38531773 795.75476435 479.76310293 790.30635309 491.21489048 C785.31256966 501.68954484 780.12432238 512.06434424 774.92382812 522.4375 C773.84629072 524.59064865 772.76893955 526.7438905 771.6917572 528.8972168 C769.39697534 533.48365331 767.10095937 538.06946895 764.80393982 542.65478516 C761.47070755 549.30872444 758.14002775 555.96393818 754.8100999 562.61953163 C749.38735223 573.45800275 743.96310874 584.29572444 738.53759766 595.1328125 C738.21474535 595.7776893 737.89189304 596.42256611 737.55925733 597.08698463 C734.94104032 602.31667685 732.3227494 607.54633206 729.70445538 612.77598572 C727.41540312 617.34803567 725.12638042 621.92010041 722.83740234 626.4921875 C722.51495523 627.1362536 722.19250811 627.78031971 721.86028987 628.44390297 C716.45132633 639.24806388 711.04398332 650.05303508 705.63775778 660.85856628 C702.03073778 668.0677815 698.42169275 675.27597745 694.81111908 682.4834137 C692.55313036 686.99184846 690.29685947 691.50114138 688.04101753 696.01065063 C687.00786055 698.07511777 685.97402283 700.13924442 684.93939018 702.20297241 C679.76255273 712.52984817 674.65065783 722.88103002 669.6875 733.3125 C664.24115994 744.75951312 658.60499337 756.1055748 652.92382812 767.4375 C651.84629072 769.59064865 650.76893955 771.7438905 649.6917572 773.8972168 C647.39697534 778.48365331 645.10095937 783.06946895 642.80393982 787.65478516 C639.47070755 794.30872444 636.14002775 800.96393818 632.8100999 807.61953163 C627.38735223 818.45800275 621.96310874 829.29572444 616.53759766 840.1328125 C616.21474535 840.7776893 615.89189304 841.42256611 615.55925733 842.08698463 C612.94104032 847.31667685 610.3227494 852.54633206 607.70445538 857.77598572 C605.41540312 862.34803567 603.12638042 866.92010041 600.83740234 871.4921875 C600.51495523 872.1362536 600.19250811 872.78031971 599.86028987 873.44390297 C594.45132633 884.24806388 589.04398332 895.05303508 583.63775778 905.85856628 C580.03073778 913.0677815 576.42169275 920.27597745 572.81111908 927.4834137 C570.55313036 931.99184846 568.29685947 936.50114138 566.04101753 941.01065063 C565.00786055 943.07511777 563.97402283 945.13924442 562.93939018 947.20297241 C556.720213 959.6091317 550.63126739 972.06906694 544.67486095 984.60362625 C540.68648004 992.98520346 536.55709268 1001.29757623 532.42578125 1009.609375 C531.77738816 1010.91414669 531.77738816 1010.91414669 531.11589622 1012.2452774 C528.83972091 1016.82391963 526.56084351 1021.4012061 524.2800293 1025.97753906 C522.41572796 1029.71959056 520.55733641 1033.46449066 518.70385742 1037.21191406 C516.43077544 1041.80762126 514.14774144 1046.39825487 511.85765648 1050.98551178 C510.99835935 1052.71075538 510.14242437 1054.43767841 509.29015541 1056.16640472 C496.76767915 1081.54720902 479.33812507 1102.49567011 452.125 1112.625 C426.30327289 1121.13671249 398.54153303 1121.26014206 373.8125 1108.9375 C363.73499045 1103.71962411 355.46167842 1097.60401801 347.1875 1089.8125 C346.5584375 1089.25949219 345.929375 1088.70648437 345.28125 1088.13671875 C333.9127715 1077.72422595 327.72740568 1061.31146213 320.98901367 1047.77197266 C319.88305198 1045.5608415 318.77656665 1043.34997219 317.66960144 1041.13934326 C314.99008219 1035.78488409 312.31608704 1030.42770047 309.64467188 1025.06919618 C306.52050816 1018.80319299 303.38979088 1012.54047194 300.25881652 1006.27786987 C294.66174303 995.08203917 289.0703033 983.88340462 283.48217773 972.68310547 C278.08657528 961.86869857 272.68738188 951.05609537 267.28393555 940.24560547 C266.95173927 939.58099016 266.619543 938.91637484 266.27728017 938.23161967 C265.60783693 936.8922905 264.93839342 935.55296146 264.26894965 934.21363255 C263.93854079 933.55259527 263.60813193 932.89155799 263.26771069 932.21048927 C262.93801989 931.5508917 262.6083291 930.89129414 262.26864768 930.21170876 C257.08537748 919.84144245 251.90516233 909.4696499 246.72535744 899.09765238 C244.86264831 895.36783841 242.99956268 891.6382128 241.13620397 887.90872331 C237.89368852 881.41878362 234.65331884 874.92777785 231.41510201 868.43569183 C230.34802736 866.29708483 229.28032454 864.1587911 228.21189117 862.02086258 C222.94509596 851.48087243 217.73546528 840.91949409 212.67304993 830.27963257 C207.20200585 818.78191724 201.53835525 807.3863029 195.83203125 796.00390625 C194.74464179 793.8310534 193.65743851 791.65810737 192.57040405 789.4850769 C189.95544052 784.25868109 187.33868031 779.03318788 184.72116828 773.80806804 C181.65642695 767.68980864 178.59440284 761.57019066 175.53259671 755.45046198 C170.05993455 744.51216236 164.58577659 733.57461215 159.11035156 722.63769531 C158.78450864 721.98683728 158.45866572 721.33597924 158.12294877 720.66539824 C155.81117317 716.04774514 153.49934295 711.43011938 151.1875 706.8125 C148.54651177 701.53745377 145.90554831 696.26239515 143.26464844 690.98730469 C142.77649727 690.01224454 142.77649727 690.01224454 142.27848446 689.01748621 C136.81980075 678.11388402 131.36273699 667.20947183 125.90679073 656.30449963 C122.85789488 650.2107492 119.80815385 644.11742464 116.7562561 638.025177 C113.8849426 632.29335238 111.01550823 626.56059087 108.14741898 620.82715225 C107.10458652 618.7433345 106.06107317 616.6598573 105.01676559 614.57677841 C99.33364625 603.23968227 93.75476435 591.86189707 88.30635309 580.41010952 C83.31256966 569.93545516 78.12432238 559.56065576 72.92382812 549.1875 C71.84629072 547.03435135 70.76893955 544.8811095 69.6917572 542.7277832 C67.39697534 538.14134669 65.10095937 533.55553105 62.80393982 528.97021484 C59.47070755 522.31627556 56.14002775 515.66106182 52.8100999 509.00546837 C47.38735223 498.16699725 41.96310874 487.32927556 36.53759766 476.4921875 C36.21474535 475.8473107 35.89189304 475.20243389 35.55925733 474.53801537 C33.26871222 469.96282322 30.97811248 465.38765842 28.6875 460.8125 C26.07076306 455.58595638 23.4540509 450.35940037 20.83740234 445.1328125 C20.51495523 444.4887464 20.19250811 443.84468029 19.86028987 443.18109703 C14.45132633 432.37693612 9.04398332 421.57196492 3.63775778 410.76643372 C0.03073778 403.5572185 -3.57830725 396.34902255 -7.18888092 389.1415863 C-9.44686964 384.63315154 -11.70314053 380.12385862 -13.95898247 375.61434937 C-14.99213945 373.54988223 -16.02597717 371.48575558 -17.06060982 369.42202759 C-22.24989358 359.07032365 -27.37296593 348.69385619 -32.34770203 338.23713684 C-37.5916433 327.21499951 -43.02335311 316.2947609 -48.51293945 305.39331055 C-49.52966675 303.37000004 -50.54616441 301.34657412 -51.56245422 299.32304382 C-53.72479531 295.01822993 -55.88826127 290.71398404 -58.05251503 286.41013145 C-61.48262622 279.58778754 -64.90721877 272.76268277 -68.33061218 265.93696594 C-69.20303203 264.19758232 -69.20303203 264.19758232 -70.09307653 262.42305964 C-71.28078212 260.05505153 -72.46847549 257.68703729 -73.6561569 255.31901705 C-76.68571407 249.27875044 -79.71574766 243.23872297 -82.74633789 237.19897461 C-83.04956745 236.59465486 -83.352797 235.99033511 -83.66521534 235.36770264 C-88.58880246 225.55584214 -93.51968714 215.74766446 -98.45283625 205.94060876 C-103.54945596 195.80804905 -108.6365675 185.67076208 -113.71591538 175.52952987 C-116.55553615 169.86090672 -119.39940584 164.19451102 -122.25396156 158.53339195 C-124.93620612 153.21385431 -127.60694041 147.88869143 -130.26933098 142.55919075 C-131.24141006 140.61824989 -132.21753901 138.6793305 -133.19826508 136.74274445 C-147.57496167 108.33728466 -154.56822866 81.22503176 -145.1875 49.8125 C-140.62487208 37.20021675 -133.92390824 25.65344177 -124.8125 15.8125 C-124.06613281 14.97460938 -123.31976563 14.13671875 -122.55078125 13.2734375 C-88.23902719 -23.36357593 -41.99973063 -17.9248323 0 0 Z " fill="#000000" transform="translate(538.8125,15.1875)"/>
<path d="M0 0 C2.20172317 2.07284357 2.20172317 2.07284357 4.76953125 4.0625 C17.87804226 14.62566907 27.59313814 31.21794971 35.18359375 46.0078125 C35.663125 46.93722656 36.14265625 47.86664062 36.63671875 48.82421875 C42.21861649 60.39429159 45.95167529 72.82086678 48.49609375 85.3828125 C48.65537354 86.1658374 48.81465332 86.9488623 48.97875977 87.75561523 C51.10811835 98.99135471 51.33502355 110.27749124 51.34472656 121.68286133 C51.34936854 123.11527632 51.35439499 124.54769011 51.35977173 125.98010254 C51.37276979 129.83825082 51.37931641 133.6963818 51.38378239 137.5545485 C51.38673517 139.97832541 51.39084397 142.40209782 51.39528656 144.82587242 C51.40893174 152.44781462 51.41861148 160.06974625 51.42248845 167.6916998 C51.42695437 176.417786 51.44444645 185.14371441 51.47348905 193.86975271 C51.49529058 200.66180849 51.50520254 207.45382051 51.50652957 214.24591082 C51.50756502 218.28020665 51.51319667 222.31435363 51.53134918 226.34861183 C51.7479306 277.43845037 40.91645837 319.36846883 5.18359375 357.0078125 C4.56484375 357.70261719 3.94609375 358.39742187 3.30859375 359.11328125 C-14.98334217 378.9159351 -42.29150124 390.34981017 -67.81640625 397.0078125 C-68.50025391 397.19005371 -69.18410156 397.37229492 -69.88867188 397.56005859 C-91.95240764 403.13142906 -119.72641849 402.04887349 -141.81640625 397.0078125 C-142.60708496 396.83088867 -143.39776367 396.65396484 -144.21240234 396.47167969 C-178.43859148 388.60312161 -213.92844589 371.00687191 -233.3359375 340.71875 C-237.8476366 332.45722184 -238.05078621 323.62002308 -235.56640625 314.6328125 C-232.58130611 306.08642991 -227.70185578 301.30798209 -219.81640625 297.0078125 C-211.54285561 293.818141 -203.72266357 292.96298771 -195.2890625 295.8828125 C-188.44103389 298.92169115 -183.83754613 303.56746799 -178.81640625 309.0078125 C-162.10240785 326.26535556 -140.59360759 335.99166186 -116.52172852 337.16894531 C-96.70736787 337.41446581 -79.28349158 337.17735753 -60.81640625 329.0078125 C-59.95660156 328.63914062 -59.09679688 328.27046875 -58.2109375 327.890625 C-38.08733854 318.61265409 -25.24525147 301.962995 -16.81640625 282.0078125 C-15.17323297 277.39335537 -13.89539801 272.78377077 -12.81640625 268.0078125 C-12.59210938 267.03714844 -12.3678125 266.06648438 -12.13671875 265.06640625 C-10.41848696 256.41640376 -10.62926324 247.78274022 -10.81640625 239.0078125 C-11.39003906 239.46929688 -11.96367188 239.93078125 -12.5546875 240.40625 C-31.63596709 255.05742978 -55.0980258 264.27093225 -78.81640625 268.0078125 C-80.49089844 268.28044922 -80.49089844 268.28044922 -82.19921875 268.55859375 C-88.99033702 269.37085529 -95.86089493 269.25135617 -102.69140625 269.2578125 C-103.42839752 269.25881958 -104.16538879 269.25982666 -104.92471313 269.26086426 C-116.14968066 269.25048589 -126.88097604 268.6870504 -137.81640625 266.0078125 C-139.01136719 265.71777344 -140.20632813 265.42773438 -141.4375 265.12890625 C-144.94176172 264.19521779 -148.37269024 263.14412283 -151.81640625 262.0078125 C-152.74718994 261.70085449 -152.74718994 261.70085449 -153.69677734 261.38769531 C-173.57460381 254.70682824 -191.30427094 244.33990688 -206.64453125 230.02734375 C-208.5484523 228.25697112 -210.49531776 226.59395482 -212.50390625 224.9453125 C-239.19497817 202.03186329 -254.43732641 164.0515784 -257.60546875 129.79003906 C-260.7818543 87.89410186 -248.27951716 46.02762899 -220.81640625 14.0078125 C-220.01976562 13.07066406 -219.223125 12.13351562 -218.40234375 11.16796875 C-213.87705529 5.99732128 -209.18434599 1.29535866 -203.81640625 -2.9921875 C-203.27129395 -3.42789062 -202.72618164 -3.86359375 -202.16455078 -4.3125 C-184.98086845 -17.92477893 -166.75160481 -27.4795154 -145.81640625 -33.9921875 C-144.85605469 -34.29253906 -143.89570312 -34.59289063 -142.90625 -34.90234375 C-94.06127715 -49.21773344 -36.83240221 -34.59820104 0 0 Z M-166.81640625 46.0078125 C-167.51894531 46.63042969 -168.22148438 47.25304688 -168.9453125 47.89453125 C-185.67648694 63.51247687 -196.19455386 87.49843784 -197.01953125 110.3203125 C-197.48961758 138.48057951 -187.8899511 162.39226216 -168.44140625 182.6953125 C-148.70898017 201.82368472 -124.06147195 208.6080084 -97.23828125 208.28125 C-72.5932713 207.55129516 -50.75806847 195.35667107 -33.81640625 178.0078125 C-17.28203564 160.16516677 -8.67589262 135.99094193 -9.47265625 111.75390625 C-10.98513163 85.82035523 -22.26913375 62.68729786 -41.06640625 44.8203125 C-49.84763731 37.09381031 -59.9477308 31.27874271 -70.81640625 27.0078125 C-71.75226563 26.63785156 -72.688125 26.26789063 -73.65234375 25.88671875 C-105.71255393 14.63679924 -142.10137443 23.18444701 -166.81640625 46.0078125 Z " fill="#000000" transform="translate(1111.81640625,1370.9921875)"/>
<path d="M0 0 C0.81726562 0.60972656 1.63453125 1.21945312 2.4765625 1.84765625 C36.51877024 28.16282318 57.17551681 64.9265444 63.57100296 107.29471016 C64.33015399 113.85157262 64.29564759 120.4077103 64.29052734 126.99780273 C64.29652778 128.56006689 64.30333674 130.12232811 64.31088257 131.68458557 C64.32840192 135.89178649 64.33323212 140.09890583 64.33451414 144.30613971 C64.33594504 146.94751545 64.34023235 149.58887107 64.34550858 152.23024178 C64.3639668 161.48220233 64.37218503 170.73410562 64.37060547 179.98608398 C64.36940725 188.54918453 64.39045765 197.11203175 64.4220928 205.67506832 C64.44843687 213.07520025 64.45896515 220.47525041 64.45769465 227.87542874 C64.45719003 232.2735593 64.46258992 236.67146468 64.48405075 241.06954765 C64.59399797 265.28411533 63.43021823 288.01583457 55 311 C54.75411133 311.67836914 54.50822266 312.35673828 54.25488281 313.05566406 C47.91815748 330.22127258 38.71396621 345.00831814 27 359 C26.3503125 359.79148437 25.700625 360.58296875 25.03125 361.3984375 C21.07353413 366.0937277 16.71088113 370.07426572 12 374 C11.21109375 374.68835937 10.4221875 375.37671875 9.609375 376.0859375 C-24.83593003 405.47788939 -68.57606256 414.18972563 -112.80566406 410.69970703 C-139.80484272 407.674535 -165.74539608 398.66662172 -188 383 C-188.60602051 382.58041016 -189.21204102 382.16082031 -189.83642578 381.72851562 C-193.94167107 378.88470605 -197.98573157 375.97086703 -202 373 C-202.68707031 372.50242187 -203.37414063 372.00484375 -204.08203125 371.4921875 C-213.04829723 364.47876165 -222.30304222 352.38444492 -224 341 C-224.17008068 331.05028027 -222.94441873 322.59074797 -216.20703125 314.97265625 C-209.45176266 308.59492762 -201.36899538 304.85386316 -192 305 C-183.14214175 305.98420647 -175.97767768 309.37608689 -170 316 C-169.071875 316.886875 -168.14375 317.77375 -167.1875 318.6875 C-165 321 -165 321 -165 323 C-164.48308594 323.22171875 -163.96617188 323.4434375 -163.43359375 323.671875 C-160.72429068 325.15046736 -158.41825959 326.90305676 -155.97753906 328.78271484 C-131.84545921 347.27249046 -100.94212887 351.13134781 -71.26171875 347.5390625 C-67.73535697 346.89515111 -64.41904334 346.07351479 -61 345 C-60.35998047 344.80132324 -59.71996094 344.60264648 -59.06054688 344.39794922 C-44.72284026 339.82754847 -32.70759617 332.70759617 -22 322 C-21.37609375 321.37609375 -20.7521875 320.7521875 -20.109375 320.109375 C-1.90464277 300.59259 2.19114582 275.66020157 3 250 C2.18660156 250.54527344 1.37320312 251.09054687 0.53515625 251.65234375 C-27.07460921 269.92658027 -56.53404568 280.47494962 -89.9375 280.375 C-90.65788452 280.37412384 -91.37826904 280.37324768 -92.1204834 280.37234497 C-135.09604608 280.20088413 -173.4445464 262.20622792 -203.53759766 231.88183594 C-209.82507392 225.38589789 -215.2737885 218.70291793 -220 211 C-220.38446289 210.37416016 -220.76892578 209.74832031 -221.16503906 209.10351562 C-243.79280509 171.66992739 -250.09486691 129.41179414 -240.09228516 86.82470703 C-230.47523431 48.3220833 -204.41630872 13.94249293 -170.69140625 -6.68359375 C-118.69507682 -37.31369812 -49.02900575 -37.1970848 0 0 Z M-151 55 C-151.58652344 55.4434375 -152.17304687 55.886875 -152.77734375 56.34375 C-170.42180426 69.96112187 -180.14373676 93.40410609 -183.375 114.875 C-186.12684518 138.97736816 -180.04450566 163.28229119 -165.046875 182.5234375 C-164.03367187 183.74933594 -164.03367187 183.74933594 -163 185 C-162.32453125 185.83789062 -161.6490625 186.67578125 -160.953125 187.5390625 C-146.42885541 204.66073796 -124.43939452 216.6601257 -102 219 C-72.47508386 220.6245699 -47.630451 213.54330535 -25.28125 193.5703125 C-8.31554962 177.51008489 2.20796096 155.93986064 3.34765625 132.48828125 C4.10849434 103.46130691 -5.68400069 79.12913337 -25.5625 58 C-59.85746375 24.6983355 -115.26038661 23.93352207 -151 55 Z " fill="#000000" transform="translate(1429,1360)"/>
<path d="M0 0 C0.76663316 -0.00226556 1.53326632 -0.00453111 2.32313079 -0.00686532 C4.87613659 -0.01316414 7.42908875 -0.01237862 9.98210144 -0.0115509 C11.81910266 -0.01454496 13.65610326 -0.01794806 15.49310303 -0.02172852 C20.47254336 -0.03054752 25.4519665 -0.03290575 30.43141389 -0.0335443 C33.54536953 -0.03425599 36.65932082 -0.03639256 39.77327538 -0.03904152 C50.64529573 -0.04828795 61.51730384 -0.05237728 72.389328 -0.05158997 C82.51001672 -0.05098934 92.63065211 -0.06153996 102.75132734 -0.07733363 C111.45219225 -0.09042588 120.15303976 -0.09577315 128.85391444 -0.09513456 C134.04533717 -0.09488007 139.23671249 -0.09770417 144.42812538 -0.10831261 C149.312716 -0.11802196 154.19721414 -0.11805334 159.08180809 -0.11079597 C160.86916616 -0.10975366 162.65653008 -0.11209193 164.44387817 -0.11815643 C189.43987541 -0.19744012 189.43987541 -0.19744012 200.08830261 8.13371277 C202.4761313 10.6120276 204.32321951 13.18608225 206.08830261 16.13371277 C206.70705261 17.14433777 207.32580261 18.15496277 207.96330261 19.19621277 C210.58047053 26.14360396 210.2116818 34.55782811 208.02189636 41.52824402 C204.30142658 49.5875723 199.26729311 55.68417511 190.90080261 59.00871277 C185.54061136 60.59040855 180.9363468 61.25830459 175.33688354 61.25396729 C174.67107594 61.25482171 174.00526833 61.25567613 173.31928474 61.25655645 C171.09602279 61.25819902 168.87283687 61.25270997 166.64958191 61.24723816 C165.0528056 61.246956 163.45602916 61.24711459 161.85925293 61.24768066 C157.52909722 61.24796751 153.19896922 61.242089 148.86881995 61.23510671 C144.34178797 61.22885439 139.81475536 61.22826788 135.28771973 61.2270813 C126.71721603 61.22397353 118.14672509 61.21576759 109.57622701 61.20573181 C97.99343753 61.19246321 86.41064455 61.18706629 74.82784939 61.18122959 C56.58132424 61.17182735 38.33482602 61.15190472 20.08830261 61.13371277 C17.77830261 91.82371277 15.46830261 122.51371277 13.08830261 154.13371277 C21.00830261 151.49371277 28.92830261 148.85371277 37.08830261 146.13371277 C44.11039853 144.60015159 51.00032436 143.18857409 58.08830261 142.13371277 C58.82113464 142.01801941 59.55396667 141.90232605 60.30900574 141.78312683 C92.48834477 136.831329 126.48751876 140.09284165 156.08830261 154.13371277 C157.21365417 154.65707214 158.33900574 155.18043152 159.49845886 155.71965027 C194.169642 172.395018 222.88022155 202.62657816 235.77531433 239.0756073 C245.41598844 267.25445134 248.15849018 299.17836641 240.08830261 328.13371277 C239.85224304 328.99319519 239.61618347 329.85267761 239.37297058 330.73820496 C234.35875243 348.40920199 226.57122365 364.73300032 215.08830261 379.13371277 C214.50049011 379.92261902 213.91267761 380.71152527 213.30705261 381.52433777 C187.93702161 414.8493785 150.51456107 433.03120321 109.87809753 439.65715027 C105.9318102 440.15339152 102.05447037 440.31202605 98.08439636 440.33683777 C97.33247513 440.34385208 96.58055389 440.35086639 95.80584717 440.35809326 C93.37910443 440.37556307 90.95260602 440.38194997 88.52580261 440.38371277 C87.69572693 440.38438751 86.86565125 440.38506226 86.01042175 440.38575745 C72.82340596 440.36873435 60.04874569 439.75082352 47.08830261 437.13371277 C46.21367371 436.96210632 45.3390448 436.79049988 44.43791199 436.61369324 C20.66338855 431.81850727 -2.13318951 422.7514817 -20.91169739 407.13371277 C-21.83337708 406.37574402 -22.75505676 405.61777527 -23.70466614 404.83683777 C-33.94021785 396.00163657 -43.5773281 385.13682063 -47.91169739 372.13371277 C-48.73804546 360.83577362 -47.87234498 352.7652186 -40.59919739 343.82121277 C-34.68544865 337.51906104 -28.49840066 334.98337156 -19.91169739 334.13371277 C-11.61031193 333.90132562 -4.39089384 336.42212055 2.02580261 341.73918152 C4.41725703 344.07191719 6.5888028 346.51452841 8.68595886 349.11418152 C23.67696362 367.43652067 53.83952084 376.37202517 76.65617371 378.92277527 C104.55207416 381.34217479 131.31729128 375.38696643 153.08830261 357.13371277 C153.81662292 356.56265808 154.54494324 355.99160339 155.29533386 355.40324402 C171.42992426 342.15083964 180.62712514 321.59098755 183.08830261 301.13371277 C185.0775222 277.49812776 180.28313562 254.08916687 164.88517761 235.46965027 C162.66810185 232.97355477 160.39430613 230.54755098 158.08830261 228.13371277 C157.26072449 227.19398621 157.26072449 227.19398621 156.41642761 226.23527527 C151.2170111 220.54680473 144.73676611 216.91797659 138.08830261 213.13371277 C137.27490417 212.65804871 136.46150574 212.18238464 135.62345886 211.69230652 C110.8581558 198.18780793 80.50076222 198.80988893 54.0677948 206.5287323 C32.92889963 212.98928758 12.93969696 222.85334486 -0.71638489 240.64152527 C-5.65060525 246.24300674 -12.1259411 249.69993694 -19.54060364 250.37199402 C-28.93170963 250.60958525 -36.80496234 248.9352557 -44.28669739 243.00871277 C-49.61271214 237.93423465 -52.81759579 231.37861642 -53.91169739 224.13371277 C-53.90807402 221.49526652 -53.83129981 218.91498453 -53.6809845 216.28434753 C-53.63503867 215.43455354 -53.58909285 214.58475954 -53.54175472 213.70921421 C-52.63510748 198.29640592 -51.18465872 182.91425233 -49.8472302 167.53434825 C-49.51784322 163.74189651 -49.19067346 159.9492547 -48.86345524 156.15661532 C-48.09144151 147.20931904 -47.31564919 138.26235603 -46.53742981 129.31559753 C-45.73737839 120.11706389 -44.94383684 110.91798473 -44.15343434 101.71861738 C-43.4709557 93.7780773 -42.78443187 85.83789394 -42.09469837 77.89798075 C-41.68433839 73.17362623 -41.27547343 68.44915505 -40.87053108 63.72433281 C-40.49022185 59.28896824 -40.10483283 54.85407306 -39.71564102 50.41947937 C-39.5743791 48.80039444 -39.43485755 47.18115649 -39.29728127 45.56175423 C-36.85052056 16.80511679 -36.85052056 16.80511679 -27.98591614 8.28215027 C-19.41605069 1.526101 -10.70762691 -0.02354416 0 0 Z " fill="#000000" transform="translate(1657.9116973876953,1330.8662872314453)"/>
<path d="M0 0 C7.59773526 7.77442678 9.4527925 16.22888129 9.38095093 26.75621033 C9.3856309 27.81685827 9.39031087 28.87750622 9.39513266 29.97029501 C9.40706703 33.51279582 9.39763096 37.05490865 9.38818359 40.59741211 C9.39225019 43.14240748 9.39759256 45.68740109 9.40411377 48.23239136 C9.41636892 54.42269461 9.41457986 60.61285507 9.40587585 66.80316018 C9.39908742 71.84097149 9.3981876 76.87875227 9.4014473 81.91656685 C9.401907 82.63494392 9.40236669 83.353321 9.40284032 84.09346708 C9.40379957 85.55317438 9.40477221 87.01288168 9.4057581 88.47258896 C9.4143084 102.15474623 9.4044864 115.83684316 9.388357 129.51899052 C9.3749799 141.22794133 9.37726102 152.93680279 9.39111328 164.64575195 C9.40722005 178.2666019 9.41345741 191.88739883 9.40427649 205.50825697 C9.40332094 206.96520173 9.40237783 208.42214649 9.4014473 209.87909126 C9.40098447 210.59577203 9.40052164 211.31245281 9.40004479 212.05085118 C9.39746821 217.07090561 9.40179751 222.0909261 9.40888596 227.11097527 C9.41825033 233.89163013 9.41144517 240.67209227 9.39420319 247.45273972 C9.39026283 249.9305538 9.39132991 252.40838215 9.39799118 254.88619041 C9.49306753 293.87173494 -1.80683877 331.78862323 -28.8984375 360.7421875 C-30.76901399 362.75184031 -32.50773711 364.81760377 -34.25 366.9375 C-57.27122954 393.17958963 -93.87591057 409.12140281 -128 413 C-133.58664107 413.29414238 -139.15677011 413.3406948 -144.75 413.3125 C-145.50112061 413.31067719 -146.25224121 413.30885437 -147.02612305 413.30697632 C-157.98025072 413.26220428 -168.35277881 412.78190774 -179 410 C-180.48042233 409.64433797 -181.96089339 409.28887874 -183.44140625 408.93359375 C-193.79894102 406.342839 -203.40729168 402.65854892 -213 398 C-213.62471191 397.70254883 -214.24942383 397.40509766 -214.89306641 397.09863281 C-251.22869879 379.60685038 -278.81069954 346.44825466 -292.12744141 308.71630859 C-296.18508801 296.08469803 -299.11961975 282.54286482 -299.203125 269.2578125 C-299.20882507 268.53117401 -299.21452515 267.80453552 -299.22039795 267.05587769 C-299.22979519 265.5213158 -299.23636079 263.98673421 -299.24023438 262.45214844 C-299.2498295 260.16562941 -299.28085565 257.88005456 -299.3125 255.59375 C-299.59776849 215.7384351 -282.19938297 180.12743673 -256 151 C-255.35804688 150.27296875 -254.71609375 149.5459375 -254.0546875 148.796875 C-231.80448612 125.0500233 -200.46717406 111.65904505 -169 106 C-168.04867187 105.82210938 -167.09734375 105.64421875 -166.1171875 105.4609375 C-127.75084323 99.78771867 -87.76728956 110.06279829 -56 132 C-54.66418328 132.99668023 -53.33047839 133.99620469 -52 135 C-51.99853344 134.39592379 -51.99706688 133.79184757 -51.99555588 133.16946602 C-51.95842242 118.43654734 -51.89932142 103.70382838 -51.81609726 88.97110176 C-51.77637342 81.84629082 -51.74394732 74.72158926 -51.72900391 67.59667969 C-51.71595266 61.38292955 -51.68890023 55.16942078 -51.64538693 48.95580661 C-51.62284928 45.66898538 -51.6091738 42.38252368 -51.60811615 39.09561539 C-51.60574219 35.41640573 -51.5786251 31.73813004 -51.54589844 28.05908203 C-51.55344398 26.44390434 -51.55344398 26.44390434 -51.56114197 24.7960968 C-51.44587817 16.38684593 -49.48448789 9.79980501 -44.875 2.75 C-31.88086747 -9.67917025 -14.36122963 -11.57090159 0 0 Z M-207 189 C-207.92425781 189.83273437 -208.84851563 190.66546875 -209.80078125 191.5234375 C-225.31928573 206.16191614 -237.08971881 228.04504851 -238.12426758 249.58764648 C-238.79628295 274.93906226 -234.79554264 298.95589311 -217.3125 318.5625 C-215.88843672 320.05460726 -214.45286184 321.53591915 -213 323 C-212.154375 323.886875 -211.30875 324.77375 -210.4375 325.6875 C-209.2309375 326.8321875 -209.2309375 326.8321875 -208 328 C-207.46503906 328.51820313 -206.93007813 329.03640625 -206.37890625 329.5703125 C-187.47399412 347.09960732 -163.92360012 352.86309804 -138.74609375 352.27734375 C-120.384052 351.55626634 -103.6235779 345.03471675 -89 334 C-88.05511719 333.30003906 -87.11023438 332.60007812 -86.13671875 331.87890625 C-68.71334897 318.35952804 -56.41806506 297.66789379 -52.44140625 275.94921875 C-49.48053535 249.45859506 -54.07681663 223.49219032 -70.6875 202 C-88.51644092 180.63923078 -110.50757128 168.01480158 -138.32617188 165.38110352 C-163.26566959 163.54745574 -188.63023991 171.93641045 -207 189 Z " fill="#000000" transform="translate(499,1227)"/>
<path d="M0 0 C7.68740304 6.84359182 11.30382752 16.28168257 15.5 25.4375 C16.2937257 27.14338486 17.08850104 28.8487817 17.88427734 30.55371094 C20.27686571 35.69305668 22.64305263 40.84422561 25 46 C25.34389771 46.75218811 25.68779541 47.50437622 26.04211426 48.27935791 C28.85963266 54.44776136 31.66486885 60.62168575 34.45507812 66.80249023 C38.87332562 76.58158098 43.41029545 86.30032292 48 96 C53.58184735 107.79734443 59.04702098 119.64090929 64.41918945 131.53512573 C69.96793119 143.81391023 75.67293775 156.0149104 81.45898438 168.18359375 C85.04585086 175.74403504 88.51320425 183.34013777 91.80505371 191.03443909 C93.03066038 194.24970462 93.03066038 194.24970462 95 197 C104.37398804 176.81920431 113.73404193 156.6328681 122.96383667 136.38565063 C128.4476226 124.3591515 133.99513847 112.36301388 139.5625 100.375 C144.97305445 88.72380529 150.35915152 77.06288016 155.6612854 65.36190796 C156.55694421 63.38724884 157.45518123 61.41378335 158.35424805 59.44067383 C161.40435971 52.74285931 164.43279405 46.03655576 167.42155457 39.31109619 C169.00512655 35.75737095 170.60419104 32.21073614 172.20578003 28.6651001 C172.9732263 26.95681955 173.73413536 25.24558402 174.48782349 23.53118896 C184.3258166 1.17143431 184.3258166 1.17143431 195.4375 -4.5625 C204.52471138 -7.89132223 213.79684039 -7.79876284 222.640625 -3.80859375 C230.17985719 0.33346944 235.80375346 6.14900909 238.5234375 14.48828125 C241.68555305 31.15418533 235.17781793 44.00394658 227.9375 58.6875 C226.77691489 61.06949339 225.6176685 63.45207625 224.4609375 65.8359375 C224.16959427 66.43555801 223.87825104 67.03517853 223.57807922 67.65296936 C220.661184 73.6703456 217.85172308 79.73514176 215.0625 85.8125 C210.76049775 95.18151087 206.42790709 104.53541118 202.0625 113.875 C200.87611133 116.41397342 199.68991855 118.95303825 198.50390625 121.4921875 C198.21113297 122.11898911 197.91835968 122.74579071 197.61671448 123.3915863 C194.56720881 129.92280398 191.53297243 136.46109049 188.5 143 C183.85441967 153.0150835 179.19082894 163.02162063 174.51702881 173.02355957 C170.81483838 180.94794751 167.1265131 188.87862276 163.453125 196.81640625 C163.06021774 197.66542511 162.66731049 198.51444397 162.26249695 199.38919067 C161.45667192 201.13058866 160.65086048 202.87199293 159.84506226 204.61340332 C152.81462649 219.80641786 145.75470633 234.98442091 138.58447266 250.11206055 C135.52779476 256.56910494 132.51599634 263.03894928 129.62109375 269.5703125 C129.0912085 270.7550415 128.56132324 271.93977051 128.01538086 273.16040039 C127.0476351 275.33303405 126.09267804 277.51143969 125.15454102 279.69702148 C120.74218207 289.56627434 115.15223174 296.87027861 105 301 C98.19675164 303.26774945 88.74192236 303.17477642 82.0625 300.4375 C69.53784522 293.71522766 64.59885122 282.54947152 59.07104492 270.12548828 C57.42715997 266.43215605 55.76349872 262.74773603 54.1015625 259.0625 C53.76066589 258.30549805 53.41976929 257.54849609 53.06854248 256.76855469 C49.62674477 249.14064381 46.07090152 241.56810217 42.5 234 C37.08867251 222.51943501 31.79287469 210.99127764 26.5625 199.42724609 C21.95544179 189.24612735 17.26303189 179.10903904 12.5 169 C7.09036802 157.51861962 1.79288827 145.99130765 -3.4375 134.42724609 C-8.3446047 123.58305586 -13.35693531 112.79258096 -18.43045044 102.02536011 C-24.00781734 90.18314123 -29.45128162 78.28328913 -34.83862305 66.35351562 C-37.39361328 60.70039647 -39.94949981 55.05128659 -42.6484375 49.46484375 C-43.02363525 48.6874585 -43.39883301 47.91007324 -43.78540039 47.10913086 C-44.70827961 45.21401473 -45.6443285 43.3253254 -46.58203125 41.4375 C-50.60736233 31.67912161 -51.36639926 21.14879383 -47.375 11.1875 C-42.9040392 2.43856951 -36.94401814 -2.74407533 -27.69140625 -5.75 C-17.74119651 -8.29725369 -7.97075073 -6.47889899 0 0 Z " fill="#000000" transform="translate(599,1338)"/>
<path d="M0 0 C0.886875 0.721875 1.77375 1.44375 2.6875 2.1875 C7.97684535 8.62048758 10.20066582 14.8242015 11 23 C11.969375 22.3709375 12.93875 21.741875 13.9375 21.09375 C37.60223829 5.90308267 61.9754744 -3.69270043 90.1875 -6.25 C91.68470581 -6.3888562 91.68470581 -6.3888562 93.2121582 -6.53051758 C105.15035714 -7.48009101 114.78815946 -6.73020018 125 0 C131.57751318 5.75095843 134.812277 12.1446655 135.875 20.8125 C136.39414942 29.27781396 134.28671474 36.31386077 129 43 C122.49473546 50.19002923 115.72906049 53.86867612 106.0703125 54.67578125 C104.39449097 54.8298645 104.39449097 54.8298645 102.68481445 54.98706055 C101.51007568 55.09445557 100.33533691 55.20185059 99.125 55.3125 C78.02341125 57.48622887 59.09313227 63.75501896 43 78 C42.02289063 78.77601562 41.04578125 79.55203125 40.0390625 80.3515625 C36.91495703 82.95070368 34.42563042 85.94023817 32 89.1875 C31.56848633 89.76137451 31.13697266 90.33524902 30.69238281 90.92651367 C17.32219707 108.9331348 11.50268457 128.87769065 11.61523438 151.19628906 C11.61111354 152.54024715 11.60564387 153.88420166 11.59895325 155.22814941 C11.58736199 158.08774739 11.58469496 160.94715311 11.58930969 163.80677032 C11.59620449 168.33935627 11.58010999 172.8716957 11.56091309 177.40423584 C11.52011878 187.83577592 11.50853022 198.26730722 11.49738312 208.69891357 C11.4868424 218.28218546 11.46994262 227.86533621 11.42928743 237.44853377 C11.41105812 241.94396919 11.40699202 246.43911508 11.41422272 250.93457842 C11.41575535 253.73871837 11.40489469 256.54271602 11.39084435 259.34681702 C11.38500155 261.24465504 11.39388927 263.14252103 11.40339661 265.04034424 C11.31064325 278.09619022 8.57331025 288.42668975 -0.8125 297.8125 C-9.29310837 303.63252535 -16.64169431 305.31982962 -27 304 C-35.90359155 301.45261755 -41.53593784 295.37633367 -46.43167019 287.77800274 C-51.90427503 276.85785334 -50.69188439 264.7274465 -50.63110352 252.8215332 C-50.63624667 250.26296493 -50.64353093 247.70440021 -50.65278625 245.14584351 C-50.66934077 238.93996359 -50.66270303 232.73448944 -50.64469803 226.52862517 C-50.63062901 221.48319953 -50.62678842 216.43785938 -50.6301403 211.392416 C-50.63061775 210.6722711 -50.63109519 209.9521262 -50.6315871 209.21015873 C-50.6326135 207.7468917 -50.63366886 206.28362469 -50.63475286 204.8203577 C-50.64330397 191.90613569 -50.62669471 178.99206584 -50.59692383 166.07788086 C-50.56807223 153.5621909 -50.56101344 141.04671997 -50.57641602 128.53100586 C-50.5931936 114.87942146 -50.59719793 101.22794085 -50.57970566 87.57635373 C-50.57786138 86.11961473 -50.57602665 84.66287572 -50.57420158 83.2061367 C-50.57328949 82.48951019 -50.5723774 81.77288367 -50.57143768 81.03454119 C-50.56584334 75.99665066 -50.56912897 70.95881099 -50.57574654 65.92092323 C-50.58430464 59.13689155 -50.57126813 52.3532216 -50.54389763 45.56922531 C-50.53701831 43.08160398 -50.53691092 40.5939532 -50.54411316 38.10633278 C-50.55281959 34.70724184 -50.53683013 31.30912049 -50.5146637 27.91011047 C-50.52290446 26.92897398 -50.53114523 25.94783748 -50.53963572 24.93696958 C-50.46173385 18.45188385 -49.06970307 13.69794923 -46 8 C-45.443125 6.948125 -44.88625 5.89625 -44.3125 4.8125 C-39.18373289 -1.42518973 -31.3083388 -6.00459454 -23.21484375 -6.9609375 C-14.54009934 -7.11393123 -6.77181925 -5.52735605 0 0 Z " fill="#000000" transform="translate(50,1336)"/>
<path d="M0 0 C0.763125 0.4228125 1.52625 0.845625 2.3125 1.28125 C11.52494964 6.88341532 16.851688 14.77644922 20 25 C22.29446768 34.82032168 21.3795523 44.73546402 16.55859375 53.671875 C9.98951814 63.73124832 1.22553504 69.25815499 -10 73 C-20.69447101 73.81459518 -29.42655279 73.38134765 -39 68 C-39.68578125 67.61585937 -40.3715625 67.23171875 -41.078125 66.8359375 C-49.64013408 61.36369692 -54.30125081 52.16380414 -56.59375 42.49609375 C-58.55568829 30.44149215 -55.6987872 20.07795319 -49 10 C-42.21330983 1.42197315 -33.57132582 -3.2002216 -22.79296875 -4.78125 C-14.36980265 -5.44096651 -7.37246823 -4.10751801 0 0 Z " fill="#000000" transform="translate(1561,1698)"/>
</svg>
