<?xml version="1.0" encoding="UTF-8"?>
<svg version="1.1" xmlns="http://www.w3.org/2000/svg" width="1902" height="1771">
<path d="M0 0 C21.27367783 -0.47585858 39.90805287 7.12043639 59.09375 15.30859375 C60.98160318 16.10763332 62.86979456 16.90587424 64.75830078 17.70336914 C68.66681393 19.35456611 72.5738739 21.00913418 76.47998047 22.66601562 C82.00199354 25.00593168 87.53230521 27.32555673 93.06640625 29.63671875 C93.94093445 30.00194138 94.81546265 30.367164 95.7164917 30.74345398 C97.47940321 31.47953876 99.24234263 32.21555672 101.00531006 32.95150757 C117.4478099 39.81822834 133.86570047 46.74243578 150.27679443 53.68380737 C165.93230132 60.30376789 181.61589387 66.8544838 197.31063843 73.38079834 C212.75000686 79.80202951 228.16382784 86.28133513 243.56298828 92.79833984 C259.11890086 99.38021203 274.7035186 105.89105341 290.29992676 112.37631226 C304.11436517 118.12169617 317.91221251 123.90459967 331.69192505 129.73278809 C337.24174032 132.07991275 342.79284973 134.42397568 348.34385681 136.76828003 C352.70068342 138.6083141 357.05712382 140.44924636 361.41259766 142.29248047 C384.32251588 151.98198442 406.97813102 161.47158985 431.28125 167.12109375 C431.94511719 167.27562012 432.60898437 167.43014648 433.29296875 167.58935547 C488.32784441 179.99452901 540.12890929 163.98081061 590.40771484 142.22241211 C602.00847387 137.20631369 613.6737393 132.34852866 625.34375 127.49609375 C627.43108242 126.62779446 629.51840333 125.75946751 631.60571289 124.89111328 C634.75465171 123.58117526 637.90361073 122.27128597 641.05265808 120.96160889 C651.36314745 116.67284743 661.66772439 112.37003235 671.96875 108.05859375 C672.83985413 107.69404083 673.71095825 107.32948792 674.60845947 106.95388794 C689.4475084 100.74206947 704.26776652 94.48616207 719.08474731 88.22192383 C733.68970321 82.04822896 748.31429117 75.9237113 762.95489502 69.83511353 C764.04649933 69.38112686 764.04649933 69.38112686 765.16015625 68.91796875 C765.89159851 68.61378021 766.62304077 68.30959167 767.37664795 67.9961853 C776.70516091 64.11502261 786.02431063 60.21148098 795.34375 56.30859375 C796.2432135 55.93193573 797.142677 55.55527771 798.06939697 55.16720581 C802.64415696 53.25145672 807.21883162 51.33550401 811.79345703 49.41943359 C817.21489564 47.14876026 822.63669281 44.87894414 828.05859375 42.609375 C829.38781105 42.05293053 829.38781105 42.05293053 830.74388123 41.48524475 C835.1977306 39.62081383 839.65178198 37.75686797 844.10620117 35.89379883 C852.37623315 32.43425876 860.64441411 28.97050953 868.90582275 25.49041748 C872.73537259 23.8775638 876.56601296 22.26730923 880.39672852 20.65722656 C882.19235425 19.90167529 883.98746709 19.14490356 885.78198242 18.38671875 C895.2763085 14.37572249 904.80351359 10.45770046 914.41015625 6.72265625 C915.24976898 6.39010834 916.08938171 6.05756042 916.95443726 5.7149353 C940.37441293 -3.26997708 965.03538944 -0.95247097 987.84765625 8.6171875 C997.03665938 12.89854426 1004.63226595 18.53324043 1012.28125 25.12109375 C1012.96832031 25.70503906 1013.65539063 26.28898437 1014.36328125 26.890625 C1029.78749758 41.15892817 1041.0629975 64.06782541 1042.47412109 84.97924805 C1043.01637902 104.94255594 1041.2160127 120.46834765 1032.45898438 138.44140625 C1031.74189678 139.92627029 1031.74189678 139.92627029 1031.01032257 141.44113159 C1025.18507255 153.45785067 1019.19951222 165.39541933 1013.21048927 177.33107758 C1011.5629993 180.61583049 1009.91827545 183.90196789 1008.27331543 187.18798828 C1003.76051041 196.20172449 999.24363004 205.21341676 994.72666168 214.22506714 C990.57600856 222.50600304 986.42629853 230.78740833 982.27986002 239.07045555 C980.34539686 242.93450682 978.40901311 246.79758653 976.4709549 250.65983582 C975.54962292 252.49672553 974.62928205 254.33410808 973.70933533 256.17169189 C972.60739477 258.37279341 971.50409308 260.57321457 970.39881897 262.77264404 C966.87389626 269.8220046 963.46196209 276.91997446 960.07385254 284.03588867 C954.49649231 295.73768951 948.73516348 307.34172074 942.92578125 318.9296875 C941.83839179 321.10254035 940.75118851 323.27548638 939.66415405 325.44851685 C937.04919052 330.67491266 934.43243031 335.90040587 931.81491828 341.12552571 C928.75017695 347.24378511 925.68815284 353.36340309 922.62634671 359.48313177 C917.15368455 370.42143139 911.67952659 381.3589816 906.20410156 392.29589844 C905.87825864 392.94675647 905.55241572 393.59761451 905.21669877 394.26819551 C902.57421317 399.54642485 899.93165369 404.8246172 897.28909111 410.102808 C894.97882565 414.71728438 892.66858974 419.33177555 890.35839844 423.94628906 C890.03296433 424.59632916 889.70753021 425.24636925 889.37223446 425.91610754 C883.91355075 436.81970973 878.45648699 447.72412192 873.00054073 458.62909412 C869.95164488 464.72284455 866.90190385 470.81616911 863.8500061 476.90841675 C860.9786926 482.64024137 858.10925823 488.37300288 855.24116898 494.1064415 C854.19833652 496.19025925 853.15482317 498.27373645 852.11051559 500.35681534 C846.42739625 511.69391148 840.84851435 523.07169668 835.40010309 534.52348423 C830.40631966 544.99813859 825.21807238 555.37293799 820.01757812 565.74609375 C818.94004072 567.8992424 817.86268955 570.05248425 816.7855072 572.20581055 C814.49072534 576.79224706 812.19470937 581.3780627 809.89768982 585.96337891 C806.56445755 592.61731819 803.23377775 599.27253193 799.9038499 605.92812538 C794.48110223 616.7665965 789.05685874 627.60431819 783.63134766 638.44140625 C783.30849535 639.08628305 782.98564304 639.73115986 782.65300733 640.39557838 C780.03479032 645.6252706 777.4164994 650.85492581 774.79820538 656.08457947 C772.50915312 660.65662942 770.22013042 665.22869416 767.93115234 669.80078125 C767.60870523 670.44484735 767.28625811 671.08891346 766.95403987 671.75249672 C761.54507633 682.55665763 756.13773332 693.36162883 750.73150778 704.16716003 C747.12448778 711.37637525 743.51544275 718.5845712 739.90486908 725.79200745 C737.64688036 730.30044221 735.39060947 734.80973513 733.13476753 739.31924438 C732.10161055 741.38371152 731.06777283 743.44783817 730.03314018 745.51156616 C724.85630273 755.83844192 719.74440783 766.18962377 714.78125 776.62109375 C709.33490994 788.06810687 703.69874337 799.41416855 698.01757812 810.74609375 C696.94004072 812.8992424 695.86268955 815.05248425 694.7855072 817.20581055 C692.49072534 821.79224706 690.19470937 826.3780627 687.89768982 830.96337891 C684.56445755 837.61731819 681.23377775 844.27253193 677.9038499 850.92812538 C672.48110223 861.7665965 667.05685874 872.60431819 661.63134766 883.44140625 C661.30849535 884.08628305 660.98564304 884.73115986 660.65300733 885.39557838 C658.03479032 890.6252706 655.4164994 895.85492581 652.79820538 901.08457947 C650.50915312 905.65662942 648.22013042 910.22869416 645.93115234 914.80078125 C645.60870523 915.44484735 645.28625811 916.08891346 644.95403987 916.75249672 C639.54507633 927.55665763 634.13773332 938.36162883 628.73150778 949.16716003 C625.12448778 956.37637525 621.51544275 963.5845712 617.90486908 970.79200745 C615.64688036 975.30044221 613.39060947 979.80973513 611.13476753 984.31924438 C610.10161055 986.38371152 609.06777283 988.44783817 608.03314018 990.51156616 C601.34706375 1003.84910694 594.82799248 1017.25738427 588.42202061 1030.73165059 C584.16693451 1039.64429812 579.75376076 1048.48081784 575.35522461 1057.32324219 C574.17122851 1059.7079728 572.99069495 1062.09403174 571.81616211 1064.48339844 C570.08300092 1068.00902392 568.33308958 1071.52619547 566.58203125 1075.04296875 C566.06723709 1076.09522644 565.55244293 1077.14748413 565.02204895 1078.23162842 C553.62816313 1100.95502719 535.16412754 1119.02059211 511.21875 1127.93359375 C485.48018576 1136.41789295 457.69118671 1136.60654377 433.03125 1124.30859375 C430.42653612 1122.95005792 427.85196788 1121.54262403 425.28125 1120.12109375 C424.31574219 1119.610625 423.35023438 1119.10015625 422.35546875 1118.57421875 C416.45854088 1115.18457725 411.58915216 1110.88304033 406.71875 1106.18359375 C406.12956787 1105.62986084 405.54038574 1105.07612793 404.93334961 1104.50561523 C395.06734604 1094.60715326 388.58584762 1081.37016053 382.70209336 1068.84057093 C380.91325871 1065.03584833 379.08722617 1061.24890636 377.26654053 1057.45935059 C376.87272521 1056.63792076 376.47890989 1055.81649094 376.07316077 1054.97016931 C371.00503342 1044.42282689 365.75860334 1033.96438363 360.52001953 1023.50097656 C359.45163332 1021.36538608 358.3832582 1019.22979005 357.31489372 1017.09418869 C355.08889225 1012.64587016 352.86169393 1008.19815316 350.63370132 1003.7508316 C347.3859434 997.26794086 344.14080846 990.78373948 340.89640389 984.29917011 C335.61010289 973.73356018 330.32230279 963.16870138 325.03320312 952.60449219 C324.71972506 951.97836386 324.40624699 951.35223553 324.08326958 950.70713362 C321.85763549 946.26176742 319.63194679 941.81642856 317.40625 937.37109375 C314.85314793 932.27183101 312.30007701 927.17255268 309.74707031 922.07324219 C309.27472514 921.12979403 309.27472514 921.12979403 308.79283763 920.16728631 C303.51024555 909.61586828 298.22927492 899.06363949 292.94941986 888.51085162 C289.43439149 881.48561151 285.91734004 874.46138826 282.39874578 867.43793344 C280.20194331 863.05187233 278.00685961 858.66495262 275.81220436 854.27781677 C274.80806875 852.2713913 273.8032529 850.26530606 272.79763985 848.25962067 C267.70687614 838.10522531 262.6847918 827.92479045 257.80441284 817.66741943 C252.32083879 806.14325696 246.64522015 794.72105692 240.92578125 783.3125 C239.83839179 781.13964715 238.75118851 778.96670112 237.66415405 776.79367065 C235.04919052 771.56727484 232.43243031 766.34178163 229.81491828 761.11666179 C226.75017695 754.99840239 223.68815284 748.87878441 220.62634671 742.75905573 C215.15368455 731.82075611 209.67952659 720.8832059 204.20410156 709.94628906 C203.87825864 709.29543103 203.55241572 708.64457299 203.21669877 707.97399199 C200.90492317 703.35633889 198.59309295 698.73871313 196.28125 694.12109375 C193.64026177 688.84604752 190.99929831 683.5709889 188.35839844 678.29589844 C187.87024727 677.32083829 187.87024727 677.32083829 187.37223446 676.32607996 C181.91355075 665.42247777 176.45648699 654.51806558 171.00054073 643.61309338 C167.95164488 637.51934295 164.90190385 631.42601839 161.8500061 625.33377075 C158.9786926 619.60194613 156.10925823 613.86918462 153.24116898 608.135746 C152.19833652 606.05192825 151.15482317 603.96845105 150.11051559 601.88537216 C144.42739625 590.54827602 138.84851435 579.17049082 133.40010309 567.71870327 C128.40631966 557.24404891 123.21807238 546.86924951 118.01757812 536.49609375 C116.94004072 534.3429451 115.86268955 532.18970325 114.7855072 530.03637695 C112.49072534 525.44994044 110.19470937 520.8641248 107.89768982 516.27880859 C104.56445755 509.62486931 101.23377775 502.96965557 97.9038499 496.31406212 C92.48110223 485.475591 87.05685874 474.63786931 81.63134766 463.80078125 C81.30849535 463.15590445 80.98564304 462.51102764 80.65300733 461.84660912 C78.36246222 457.27141697 76.07186248 452.69625217 73.78125 448.12109375 C71.16451306 442.89455013 68.5478009 437.66799412 65.93115234 432.44140625 C65.60870523 431.79734015 65.28625811 431.15327404 64.95403987 430.48969078 C59.54507633 419.68552987 54.13773332 408.88055867 48.73150778 398.07502747 C45.12448778 390.86581225 41.51544275 383.6576163 37.90486908 376.45018005 C35.64688036 371.94174529 33.39060947 367.43245237 31.13476753 362.92294312 C30.10161055 360.85847598 29.06777283 358.79434933 28.03314018 356.73062134 C22.33510337 345.36404498 16.74400138 333.95529358 11.28047687 322.47408372 C6.92914028 313.34534422 2.41838393 304.30193932 -2.1340332 295.2722168 C-3.01283436 293.52476651 -3.89140231 291.77719893 -4.76976013 290.02952576 C-6.63414942 286.32056766 -8.49967906 282.61218637 -10.36602211 278.90421104 C-13.32570664 273.02282759 -16.27980092 267.13864717 -19.23271179 261.25386047 C-19.73509457 260.2527323 -20.23747736 259.25160412 -20.75508386 258.22013873 C-21.78073613 256.17623673 -22.8063764 254.13232871 -23.8320049 252.08841479 C-30.68676308 238.42855023 -37.54516257 224.77054436 -44.41821289 211.11987305 C-49.08406671 201.85284288 -53.74122648 192.5814999 -58.38862675 183.30520087 C-60.83700463 178.41904737 -63.28959925 173.53512204 -65.75295448 168.65649986 C-68.06753035 164.0723918 -70.37051035 159.48263664 -72.66520119 154.88854408 C-73.50182293 153.21851008 -74.34247574 151.55048741 -75.18777084 149.88482666 C-88.78256984 123.07786539 -95.66046778 95.52245757 -86.5 66.01953125 C-81.20468504 50.28004445 -72.49327488 37.69466018 -60.71875 26.12109375 C-59.95691406 25.36054688 -59.19507813 24.6 -58.41015625 23.81640625 C-42.81999395 9.11302383 -21.25978889 0.94691588 0 0 Z " fill="#ED0008" transform="translate(479.71875,-0.12109375)"/>
<path d="M0 0 C0.71027344 0.58652344 1.42054688 1.17304687 2.15234375 1.77734375 C6.92303693 5.81549287 11.02142502 10.18706603 15 15 C15.92232422 16.09054687 15.92232422 16.09054687 16.86328125 17.203125 C46.99627876 53.67673321 53.3469172 94.77790448 53.26865101 140.78243256 C53.26350786 144.76397454 53.26830512 148.74550833 53.27142334 152.72705078 C53.27503919 159.40724368 53.27032705 166.08739203 53.26074219 172.76757812 C53.24986228 180.4378396 53.25338956 188.10799465 53.264395 195.77825356 C53.27353641 202.42092599 53.27472 209.06356681 53.26951766 215.70624352 C53.26643527 219.64860141 53.26588362 223.59090966 53.27259064 227.53326416 C53.33150634 267.60959664 53.33150634 267.60959664 48.875 285.4375 C48.66254639 286.29964111 48.45009277 287.16178223 48.23120117 288.05004883 C41.04301843 315.77157435 26.52531337 338.43293972 7 359 C6.38125 359.69480469 5.7625 360.38960937 5.125 361.10546875 C-17.14605736 385.21587683 -55.63143404 400.89861214 -88.08959961 402.20483398 C-92.58079943 402.32799839 -97.06995363 402.33389615 -101.5625 402.3125 C-102.75345779 402.30976578 -102.75345779 402.30976578 -103.96847534 402.30697632 C-116.19339272 402.25976161 -128.03914388 401.72953547 -140 399 C-140.79067871 398.82307617 -141.58135742 398.64615234 -142.39599609 398.46386719 C-174.57970861 391.06487193 -208.70443495 375.01638649 -228.625 347.75 C-229.03951416 347.1835376 -229.45402832 346.6170752 -229.88110352 346.03344727 C-235.25103363 338.27008846 -235.87403346 330.16669242 -235 321 C-232.71198449 311.61206009 -228.78446548 305.5508426 -220.62109375 300.36328125 C-212.9458319 296.37123001 -204.43067354 294.82477814 -196 297 C-188.37410451 299.70858788 -183.38520555 304.11306723 -178 310 C-159.56435582 328.85126257 -137.16276955 338.61203744 -110.73046875 339.30078125 C-108.21621657 339.32004187 -105.70180143 339.32360458 -103.1875 339.3125 C-101.20955444 339.30512817 -101.20955444 339.30512817 -99.19165039 339.29760742 C-84.6828919 339.12306193 -72.36964281 336.91451748 -59 331 C-58.14019531 330.63132812 -57.28039063 330.26265625 -56.39453125 329.8828125 C-35.87902159 320.42415145 -21.94997209 302.55085502 -14.25 281.71484375 C-11.11743635 272.40525616 -8.98540355 262.80174116 -8.9453125 252.95703125 C-8.94233154 252.22653564 -8.93935059 251.49604004 -8.9362793 250.7434082 C-8.93804671 247.49526087 -8.96452478 244.24795361 -9 241 C-9.53625 241.40089844 -10.0725 241.80179688 -10.625 242.21484375 C-28.92578961 255.48893621 -49.73037029 264.7912305 -72 269 C-72.91426758 269.17587646 -73.82853516 269.35175293 -74.77050781 269.53295898 C-83.77798736 271.10235947 -92.64020304 271.35730579 -101.75 271.3125 C-102.87518539 271.31026428 -102.87518539 271.31026428 -104.02310181 271.3079834 C-114.97563928 271.26884372 -125.34655322 270.73742626 -136 268 C-137.81564453 267.59974609 -137.81564453 267.59974609 -139.66796875 267.19140625 C-162.53819146 261.76906683 -184.27702212 250.34817356 -202 235 C-202.54414551 234.52884766 -203.08829102 234.05769531 -203.64892578 233.57226562 C-233.70302254 207.27605205 -252.967384 169.9505039 -256 130 C-257.21514858 108.4636613 -255.07111369 87.4145572 -248 67 C-247.61972656 65.88625 -247.23945312 64.7725 -246.84765625 63.625 C-232.33938075 23.76387942 -202.48922603 -6.45014343 -164.625 -24.6875 C-152.18744516 -30.0845771 -139.35129268 -33.7586598 -126 -36 C-125.02933594 -36.17660156 -124.05867187 -36.35320312 -123.05859375 -36.53515625 C-78.65749076 -43.2832166 -34.02335872 -28.49672177 0 0 Z M-165 48 C-165.70253906 48.62261719 -166.40507813 49.24523438 -167.12890625 49.88671875 C-184.13702018 65.76317735 -194.13562796 89.56162321 -195.2578125 112.56640625 C-196.04331707 137.35965433 -188.40422661 160.7499228 -171.5625 179.25 C-155.12834009 196.75318346 -133.01282556 209.41531777 -108.54296875 210.23828125 C-80.64579324 210.72886323 -57.19763615 203.81171078 -36.3671875 184.40795898 C-18.33165923 166.92120913 -8.25525712 143.44192383 -7.6875 118.3125 C-7.82201258 95.85158927 -15.465841 74.19576425 -30 57 C-30.66773438 56.18660156 -31.33546875 55.37320312 -32.0234375 54.53515625 C-48.0862064 35.71794142 -70.72880686 25.42763814 -95.06958008 23.33032227 C-120.94502811 21.65236006 -145.90781743 30.36911593 -165 48 Z " fill="#ED0008" transform="translate(1110,1369)"/>
<path d="M0 0 C1.08667969 0.52207031 2.17335938 1.04414062 3.29296875 1.58203125 C21.31829814 10.78502551 38.49792415 23.97738395 51 40 C51.59627197 40.76038574 51.59627197 40.76038574 52.20458984 41.53613281 C74.75213144 70.54110605 86.34425175 104.18299739 86.2746582 140.9753418 C86.27901837 142.52291608 86.28420579 144.07048822 86.29014587 145.61805725 C86.30340972 149.77955307 86.30412858 153.94095736 86.30158257 158.10247016 C86.30050382 161.5982458 86.30541932 165.09400361 86.310188 168.58977538 C86.32124047 176.85047288 86.32174527 185.11112488 86.31567383 193.37182617 C86.30964299 201.8423764 86.32193226 210.31276014 86.3432439 218.78328198 C86.36096583 226.10100876 86.36684454 233.41868307 86.36360615 240.73643047 C86.36180929 245.08689811 86.36426678 249.43724708 86.37832069 253.78769493 C86.51251244 299.20867363 77.49147757 337.47188736 48 373 C47.48824219 373.63550781 46.97648437 374.27101563 46.44921875 374.92578125 C42.70908338 379.47241481 38.50683749 383.22720084 34 387 C33.23300781 387.67804688 32.46601562 388.35609375 31.67578125 389.0546875 C-1.91843362 417.9673196 -43.87367983 426.00958622 -87 424 C-115.25826311 421.77022943 -142.81119487 412.32427337 -166 396 C-166.60602051 395.58041016 -167.21204102 395.16082031 -167.83642578 394.72851562 C-171.94167107 391.88470605 -175.98573157 388.97086703 -180 386 C-180.68707031 385.50242187 -181.37414063 385.00484375 -182.08203125 384.4921875 C-190.63493082 377.80209744 -198.6336647 366.88778432 -201.75 356.5 C-202.77498078 346.25019223 -201.55298114 337.22164478 -195 329 C-188.94075029 322.45721915 -181.16930092 318.60055015 -172.25390625 317.96484375 C-164.08677914 318.09223395 -156.35879248 320.95365333 -150.3125 326.4375 C-149.549375 327.283125 -148.78625 328.12875 -148 329 C-147.071875 329.886875 -146.14375 330.77375 -145.1875 331.6875 C-143 334 -143 334 -143 336 C-142.48308594 336.22171875 -141.96617188 336.4434375 -141.43359375 336.671875 C-138.72399915 338.15062647 -136.41762546 339.90385416 -133.97607422 341.78295898 C-114.98082936 356.34565691 -93.87261615 361.41860253 -70.1875 361.3125 C-69.53013855 361.31034485 -68.8727771 361.3081897 -68.19549561 361.30596924 C-41.93961134 361.16806985 -18.90461159 353.90461159 0 335 C0.62390625 334.37609375 1.2478125 333.7521875 1.890625 333.109375 C20.09535723 313.59259 24.19114582 288.66020157 25 263 C24.18660156 263.54527344 23.37320312 264.09054687 22.53515625 264.65234375 C-5.07460921 282.92658027 -34.53404568 293.47494962 -67.9375 293.375 C-68.65788452 293.37412384 -69.37826904 293.37324768 -70.1204834 293.37234497 C-110.42598603 293.21153694 -148.95211197 277.07746861 -178 249 C-180.44237808 246.41916512 -182.72573442 243.72911869 -185 241 C-185.68835937 240.21109375 -186.37671875 239.4221875 -187.0859375 238.609375 C-213.29979944 207.88856838 -225.61372167 167.25321726 -222.53564453 127.16186523 C-219.27331199 90.07335597 -204.46515027 57.96815239 -179 31 C-178.20464844 30.12859375 -177.40929688 29.2571875 -176.58984375 28.359375 C-131.77370059 -18.95781989 -57.26600707 -27.59055828 0 0 Z M-129 68 C-129.67417969 68.52980469 -130.34835937 69.05960938 -131.04296875 69.60546875 C-149.45218496 84.48717048 -158.97948999 107.84437332 -161.72265625 130.80859375 C-164.01343112 157.16863696 -155.31055806 180.17981839 -138.9453125 200.55859375 C-124.38178451 217.65606892 -102.45728597 229.65826007 -80 232 C-50.57225957 233.61922293 -25.663065 226.54506382 -3.31640625 206.60546875 C12.92905472 191.21621792 24.5129708 168.71596535 25.203125 146.12890625 C25.58125538 119.50182671 18.77809759 94.7362999 0.0871582 75.07641602 C-18.15332812 56.46685654 -39.83367837 46.25384002 -66.02734375 45.0078125 C-89.66269251 44.96133197 -111.03376486 52.51614622 -129 68 Z " fill="#ED0008" transform="translate(1407,1347)"/>
<path d="M0 0 C0.76663316 -0.00226556 1.53326632 -0.00453111 2.32313079 -0.00686532 C4.87613659 -0.01316414 7.42908875 -0.01237862 9.98210144 -0.0115509 C11.81910266 -0.01454496 13.65610326 -0.01794806 15.49310303 -0.02172852 C20.47254336 -0.03054752 25.4519665 -0.03290575 30.43141389 -0.0335443 C33.54536953 -0.03425599 36.65932082 -0.03639256 39.77327538 -0.03904152 C50.64529573 -0.04828795 61.51730384 -0.05237728 72.389328 -0.05158997 C82.51001672 -0.05098934 92.63065211 -0.06153996 102.75132734 -0.07733363 C111.45219225 -0.09042588 120.15303976 -0.09577315 128.85391444 -0.09513456 C134.04533717 -0.09488007 139.23671249 -0.09770417 144.42812538 -0.10831261 C149.312716 -0.11802196 154.19721414 -0.11805334 159.08180809 -0.11079597 C160.86916616 -0.10975366 162.65653008 -0.11209193 164.44387817 -0.11815643 C189.41641228 -0.1973657 189.41641228 -0.1973657 200.08830261 8.13371277 C206.57440994 14.74271476 209.19843537 21.73584194 209.65080261 30.88371277 C209.4422576 39.34338636 206.72270391 45.93096888 201.18986511 52.32902527 C193.85558313 59.25745765 185.2258891 61.23831145 175.33688354 61.29193115 C174.67107594 61.29686913 174.00526833 61.30180711 173.31928474 61.30689472 C171.09605288 61.32221022 168.87284976 61.33061412 166.64958191 61.33903503 C165.05280303 61.34861824 163.45602666 61.35862858 161.85925293 61.36903381 C157.5291247 61.39604099 153.19898562 61.4170732 148.86881995 61.4370358 C144.34176649 61.4589212 139.81474632 61.48629739 135.28771973 61.51309204 C126.71724038 61.56298439 118.14674252 61.60793605 109.57622701 61.6511144 C97.99340682 61.70975418 86.41063045 61.77602248 74.82784939 61.84186459 C56.58136333 61.94538519 38.33483962 62.0387103 20.08830261 62.13371277 C17.77830261 92.49371277 15.46830261 122.85371277 13.08830261 154.13371277 C21.00830261 151.49371277 28.92830261 148.85371277 37.08830261 146.13371277 C44.11039853 144.60015159 51.00032436 143.18857409 58.08830261 142.13371277 C58.82113464 142.01801941 59.55396667 141.90232605 60.30900574 141.78312683 C92.48834477 136.831329 126.48751876 140.09284165 156.08830261 154.13371277 C157.21365417 154.65707214 158.33900574 155.18043152 159.49845886 155.71965027 C195.17087502 172.87656859 223.43483551 203.77613231 236.58830261 241.19621277 C241.97093977 257.24189876 244.49236879 272.89451478 244.40080261 289.82121277 C244.39806839 290.87394882 244.39806839 290.87394882 244.39527893 291.94795227 C244.34743379 302.91197115 243.76517627 313.46573889 241.08830261 324.13371277 C240.92201355 324.82352234 240.75572449 325.51333191 240.58439636 326.2240448 C231.00161978 364.97217935 205.83659294 397.40293797 171.92814636 418.03117371 C146.08269134 433.51924096 118.21012759 440.59016252 88.15080261 440.44621277 C87.33915649 440.44405762 86.52751038 440.44190247 85.69126892 440.43968201 C42.47268267 440.25613431 -0.09476641 428.84060364 -31.4712677 397.65324402 C-40.60336662 388.01965356 -48.08225906 377.67556308 -48.91169739 364.13371277 C-48.41407743 354.53857917 -45.01580605 347.79988147 -38.03669739 341.32121277 C-30.72983537 335.34781905 -22.81435422 333.52236635 -13.48591614 334.34855652 C-4.12583139 336.04598121 1.92336055 341.59139721 7.96330261 348.57121277 C13.21042031 354.37314694 17.94501263 358.76687539 25.08830261 362.13371277 C26.34290687 362.76905504 27.59674978 363.40590194 28.85002136 364.04386902 C57.28198257 378.23812031 90.31114715 384.98016714 121.24064636 374.80949402 C133.05980926 370.69397894 143.46923375 365.19853352 153.08830261 357.13371277 C153.81662292 356.56265808 154.54494324 355.99160339 155.29533386 355.40324402 C171.42648216 342.15366687 180.62962963 321.58987198 183.08830261 301.13371277 C184.95700708 277.65150194 179.87431471 253.24476579 164.40861511 234.82902527 C161.74897641 231.80978782 158.9521438 228.95953837 156.08830261 226.13371277 C155.42056824 225.46726746 154.75283386 224.80082214 154.06486511 224.11418152 C136.72580543 207.90911097 111.6452036 200.68817635 88.28752136 200.98136902 C59.02424043 202.37485859 27.9282659 211.88656588 6.08830261 232.13371277 C3.72452239 234.90595422 1.50172636 237.75225121 -0.71638489 240.64152527 C-5.65060525 246.24300674 -12.1259411 249.69993694 -19.54060364 250.37199402 C-28.93170963 250.60958525 -36.80496234 248.9352557 -44.28669739 243.00871277 C-50.61968039 236.97482342 -53.75003266 229.22230987 -54.02470398 220.57669067 C-53.985439 212.79421802 -53.149782 205.03585171 -52.47468567 197.28825378 C-52.3199836 195.48054134 -52.16560377 193.67280129 -52.01152039 191.86503601 C-51.59358871 186.97423641 -51.17074854 182.08387307 -50.74669504 177.19360089 C-50.39243166 173.10337344 -50.04048938 169.01294756 -49.68851078 164.92252296 C-48.85777489 155.26922117 -48.02296073 145.61627797 -47.18562317 135.96354675 C-46.3232794 126.02169454 -45.46790182 116.07926028 -44.61594212 106.13651329 C-43.88284227 97.58387509 -43.14536019 89.03162235 -42.40440166 80.47966141 C-41.96252085 75.37904318 -41.52228668 70.27829677 -41.08629227 65.17717171 C-40.67601471 60.37913986 -40.26024476 55.58161443 -39.84033585 50.7844162 C-39.68763089 49.0294788 -39.53682445 47.27437494 -39.38811493 45.51909447 C-36.91638107 16.38877376 -36.91638107 16.38877376 -27.66169739 7.82121277 C-19.29872612 1.27627873 -10.41455475 -0.02289975 0 0 Z " fill="#ED0008" transform="translate(1657.9116973876953,1330.8662872314453)"/>
<path d="M0 0 C7.57717798 7.75339142 9.45178363 16.20100789 9.39440918 26.70237732 C9.40050028 27.75738074 9.40659139 28.81238416 9.41286707 29.89935738 C9.42947218 33.42316837 9.42472445 36.946617 9.41992188 40.47045898 C9.42726427 43.00247573 9.43585099 45.53448913 9.44558716 48.0664978 C9.46550192 54.22738891 9.47118349 60.38814754 9.46939927 66.54906648 C9.46808825 71.5677421 9.47191317 76.58638853 9.47932434 81.60505867 C9.48142378 83.05455607 9.48352138 84.50405347 9.48561716 85.95355088 C9.48718245 87.03609262 9.48718245 87.03609262 9.48877937 88.14050389 C9.50767375 101.78474408 9.50663603 115.42893051 9.49981004 129.07317836 C9.49425392 141.50069605 9.51497858 153.92800635 9.54817051 166.35547566 C9.58208783 179.1555178 9.59705231 191.9554612 9.59245348 204.75554901 C9.59022446 211.9254875 9.59521691 219.09523512 9.62034607 226.26513481 C9.64384179 233.02620314 9.64055977 239.78677683 9.62041855 246.54787827 C9.61704433 249.00943784 9.62193946 251.47102722 9.63640213 253.93254662 C9.85649619 294.22182983 -2.18314775 332.03484926 -29.98046875 361.828125 C-31.75084138 363.73204605 -33.41385768 365.67891151 -35.0625 367.6875 C-56.46811897 392.62215345 -90.40026952 406.47191476 -122 412 C-122.90572754 412.17273437 -123.81145508 412.34546875 -124.74462891 412.5234375 C-131.1883735 413.46675454 -137.74703722 413.24489733 -144.25 413.25 C-145.39998978 413.25101212 -145.39998978 413.25101212 -146.57321167 413.25204468 C-157.99167672 413.23604803 -168.87608726 412.78937993 -180 410 C-180.69754395 409.82839355 -181.39508789 409.65678711 -182.11376953 409.47998047 C-192.91426963 406.76224725 -202.9373951 402.72953404 -213 398 C-214.38638672 397.36771484 -214.38638672 397.36771484 -215.80078125 396.72265625 C-230.12392064 389.93801127 -242.47815082 379.73543725 -254 369 C-254.72960937 368.33613281 -255.45921875 367.67226562 -256.2109375 366.98828125 C-283.15085072 341.45858009 -298.39876799 302.67679092 -299.91015625 265.9387207 C-300.60326609 239.89024522 -295.39067952 214.45525788 -284 191 C-283.70254883 190.37528809 -283.40509766 189.75057617 -283.09863281 189.10693359 C-275.63475624 173.60224295 -265.04386698 160.21470198 -253 148 C-252.10152344 147.08863281 -251.20304687 146.17726563 -250.27734375 145.23828125 C-237.74807165 133.15709867 -222.84018315 124.08035646 -207 117 C-206.37528809 116.71930664 -205.75057617 116.43861328 -205.10693359 116.14941406 C-168.69883834 100.06277713 -125.70356547 100.26888408 -88.75537109 114.55981445 C-77.21319047 119.24596927 -66.31958178 125.01966132 -56 132 C-55.01 132.66 -54.02 133.32 -53 134 C-52.99668985 133.43807544 -52.99337971 132.87615088 -52.98996925 132.2971983 C-52.90851221 118.58208768 -52.81622527 104.86708605 -52.71247292 91.15212536 C-52.66262081 84.51948813 -52.61628992 77.88686598 -52.578125 71.25415039 C-52.54113205 64.84797071 -52.4947344 58.44192066 -52.44193649 52.03585243 C-52.42346684 49.59718421 -52.40833176 47.15848828 -52.39665604 44.71977806 C-52.37966607 41.29246242 -52.3506008 37.86543886 -52.31884766 34.43823242 C-52.31560738 32.94065651 -52.31560738 32.94065651 -52.31230164 31.41282654 C-52.18369937 20.47937196 -50.96108103 10.75897613 -44 2 C-31.39576882 -10.11846973 -13.62630651 -10.97877102 0 0 Z M-206 188 C-206.96679688 188.76570313 -207.93359375 189.53140625 -208.9296875 190.3203125 C-212.26133527 193.09212126 -214.86854271 196.25931551 -217.5 199.6875 C-217.97848389 200.30761963 -218.45696777 200.92773926 -218.94995117 201.56665039 C-234.49139205 221.97254905 -241.16274044 246.45142806 -238.16943359 272.04174805 C-234.91992978 295.08789169 -222.93006289 316.46602707 -205.0625 331.375 C-182.33291478 348.31360809 -157.21953253 355.36685448 -128.91015625 351.53125 C-125.5128104 350.87746523 -122.30000183 350.03714343 -119 349 C-118.37222656 348.80664062 -117.74445313 348.61328125 -117.09765625 348.4140625 C-92.476838 340.63906726 -73.19500098 323.71769171 -61 301 C-50.27128033 278.88169058 -48.32252675 253.43254866 -56 230 C-64.66842361 205.38631556 -81.42657521 186.23806809 -104.47265625 174.18359375 C-137.96476468 158.84105498 -178.18233708 163.37694501 -206 188 Z " fill="#ED0008" transform="translate(499,1227)"/>
<path d="M0 0 C6.30279242 6.61047733 9.65330118 14.7853318 13.38989258 22.98461914 C14.1361267 24.59563432 14.88346016 26.20614069 15.63183594 27.81616211 C17.90422134 32.71754648 20.15023563 37.63070948 22.38989258 42.54711914 C22.72434387 43.28041443 23.05879517 44.01370972 23.40338135 44.76922607 C26.21017969 50.9243685 29.00922775 57.08299182 31.79418945 63.24804688 C36.23080476 73.06025726 40.78424596 82.81323089 45.38989258 92.54711914 C50.97199745 104.34518006 56.43713821 116.18956891 61.81008911 128.08425903 C67.04390638 139.66470698 72.42111995 151.17290795 77.85671997 162.65988159 C82.1116972 171.65373241 86.31662305 180.66019375 90.27246094 189.79101562 C91.4743324 192.8938777 91.4743324 192.8938777 93.38989258 195.54711914 C102.59092408 175.62915248 111.78290296 155.7071372 120.9364624 135.76730347 C126.80371599 122.98710166 132.69517726 110.21820225 138.59353638 97.45233154 C143.20995617 87.45914337 147.8098419 77.45873809 152.37792969 67.44335938 C153.66997654 64.61074078 154.96508396 61.77955687 156.26318359 58.94970703 C156.91877141 57.51997036 157.57428827 56.09020114 158.22973633 54.66040039 C158.55855301 53.94316299 158.88736969 53.2259256 159.22615051 52.48695374 C161.52805947 47.45604677 163.79899821 42.41183489 166.0594635 37.36218262 C167.74468013 33.606267 169.44477527 29.85719042 171.14724731 26.10906982 C171.96552296 24.29857039 172.77744511 22.48518384 173.58248901 20.66876221 C183.62761258 -1.97805153 183.62761258 -1.97805153 196.04223633 -6.76928711 C204.27471179 -9.16643055 212.79414797 -9.14785418 220.62036133 -5.37866211 C228.88039843 -0.46603216 234.75497787 6.21326875 237.38989258 15.54711914 C238.48467679 24.19882094 237.92068415 31.49281483 234.39379883 39.44555664 C234.0829837 40.17191818 233.77216858 40.89827972 233.45193481 41.64665222 C230.12466168 49.3373388 226.540077 56.91103949 222.91433716 64.46450806 C220.91365063 68.63336193 218.92862348 72.80968095 216.94067383 76.98461914 C216.54571213 77.81298782 216.15075043 78.64135651 215.74382019 79.49482727 C212.4385104 86.4307568 209.18034805 93.38729823 205.95239258 100.35961914 C205.44925537 101.445896 204.94611816 102.53217285 204.42773438 103.65136719 C203.06050204 106.60576597 201.69434684 109.56065985 200.32873535 112.51580811 C196.91464572 119.90264447 193.49655546 127.28762995 190.07739258 134.67211914 C189.67246582 135.54680847 189.26753906 136.4214978 188.8503418 137.32269287 C182.9309671 150.10586658 176.96267544 162.86502609 170.95181274 175.60540771 C166.19373857 185.69159249 161.48460707 195.79871195 156.82348633 205.93017578 C152.47832765 215.37135417 148.08574494 224.79003252 143.68383789 234.20483398 C140.4521581 241.1184117 137.23416347 248.03798902 134.03651428 254.96737671 C131.63353803 260.17237849 129.20975847 265.36748577 126.77954102 270.55981445 C125.54089469 273.22251235 124.32587519 275.89450943 123.11645508 278.57055664 C118.90402672 287.70424518 114.1511919 295.05713613 104.76489258 299.54711914 C97.25938835 301.84840601 87.75682372 301.92668168 80.45239258 298.98461914 C67.92773779 292.2623468 62.9887438 281.09659066 57.4609375 268.67260742 C55.81705255 264.97927519 54.1533913 261.29485517 52.49145508 257.60961914 C52.15055847 256.85261719 51.80966187 256.09561523 51.45843506 255.31567383 C48.01663735 247.68776295 44.46079409 240.11522131 40.88989258 232.54711914 C35.47856509 221.06655416 30.18276727 209.53839678 24.95239258 197.97436523 C20.34533437 187.79324649 15.65292447 177.65615818 10.88989258 167.54711914 C5.48026059 156.06573876 0.18278084 144.53842679 -5.04760742 132.97436523 C-9.95471212 122.130175 -14.96704273 111.3397001 -20.04055786 100.57247925 C-25.61764995 88.73084387 -31.059108 76.83085097 -36.44873047 64.90283203 C-39.98107914 57.09090821 -43.53249829 49.28983704 -47.35400391 41.61376953 C-52.27021625 31.48491141 -52.83948878 21.91399787 -49.65698242 11.19555664 C-46.54015712 3.31045383 -40.79498729 -2.04592021 -33.23510742 -5.64038086 C-21.48492039 -10.52182145 -9.4130067 -8.4938291 0 0 Z " fill="#ED0008" transform="translate(600.610107421875,1339.452880859375)"/>
<path d="M0 0 C6.03149253 6.47037452 8.08659227 12.51826196 9.06640625 21.140625 C10.03578125 20.5115625 11.00515625 19.8825 12.00390625 19.234375 C40.20508105 1.13171696 76.91956525 -14.28447115 111.15234375 -7.74609375 C120.6216784 -4.86467422 127.05675124 0.84778344 131.87890625 9.328125 C134.67519898 18.3056964 134.80797073 26.45707744 131.06640625 35.140625 C126.59967036 43.57779279 119.05468244 49.23112519 110.06640625 52.140625 C105.75183881 52.88920369 101.42939336 53.23295197 97.06640625 53.578125 C75.30979618 55.68658526 57.77963743 61.60871627 41.06640625 76.140625 C40.46828125 76.59566406 39.87015625 77.05070312 39.25390625 77.51953125 C22.94214248 90.16869991 12.99468441 112.87345866 10.26733017 132.90836525 C9.80636529 138.02967358 9.91302051 143.18327667 9.90869141 148.32104492 C9.90089209 150.34426126 9.89308872 152.36747758 9.8851335 154.39069331 C9.87744481 156.55572546 9.87204786 158.72075347 9.86717606 160.88579369 C9.85643612 165.4137541 9.83617486 169.94164137 9.8140564 174.46955872 C9.7523353 187.34205766 9.69819478 200.21455156 9.66503906 213.0871582 C9.64662758 220.20442383 9.6176119 227.32156589 9.57703435 234.43874055 C9.55607625 238.19718475 9.54052309 241.95547404 9.53822708 245.71397972 C9.53606164 249.25425648 9.52000203 252.79421058 9.49383736 256.33438873 C9.48335167 258.23327803 9.487367 260.13223064 9.49201965 262.03114319 C9.36381867 275.42701139 6.90623428 286.30079697 -2.74609375 295.953125 C-11.22670212 301.77315035 -18.57528806 303.46045462 -28.93359375 302.140625 C-37.83701163 299.59329224 -43.47040423 293.51695385 -48.36526394 285.91806984 C-53.83515401 275.00145287 -52.62549781 262.87997825 -52.56469727 250.97802734 C-52.56984045 248.42108159 -52.57712474 245.86413938 -52.58638 243.3072052 C-52.6029349 237.10500021 -52.59629618 230.90320122 -52.57829178 224.70101188 C-52.56422178 219.6579785 -52.56038238 214.61503065 -52.56373405 209.57197952 C-52.5642115 208.85212335 -52.56468894 208.13226717 -52.56518085 207.39059717 C-52.56620725 205.92789587 -52.56726262 204.46519459 -52.56834661 203.00249334 C-52.57689798 190.09274497 -52.5602883 177.18314882 -52.53051758 164.2734375 C-52.50167193 151.76458344 -52.49460433 139.25594852 -52.51000977 126.74707031 C-52.52679202 113.10170225 -52.53078647 99.45643803 -52.51329941 85.81106722 C-52.51145515 84.35459114 -52.50962042 82.89811505 -52.50779533 81.44163895 C-52.50688324 80.72515314 -52.50597115 80.00866733 -52.50503143 79.27046984 C-52.49943952 74.23605475 -52.5027205 69.2016906 -52.50934029 64.16727829 C-52.51790408 57.38570589 -52.50484589 50.60449505 -52.47749138 43.82295799 C-52.47061692 41.33736925 -52.47049944 38.85175105 -52.47770691 36.36616325 C-52.48642523 32.96742315 -52.47040383 29.56964951 -52.44825745 26.17098999 C-52.45649821 25.19276634 -52.46473898 24.21454268 -52.47322947 23.20667589 C-52.37964362 15.39908212 -50.32871653 9.04378804 -46.24609375 2.390625 C-33.19142935 -10.31121063 -13.83157513 -13.30066619 0 0 Z " fill="#ED0008" transform="translate(51.93359375,1337.859375)"/>
<path d="M0 0 C8.40698994 7.77100016 13.17488355 18.43241491 13.6875 29.8125 C13.13477966 41.73850416 8.96462008 50.84734786 0.43359375 59.21875 C-9.33453773 67.21271146 -20.33453068 69.79302836 -32.67480469 68.67041016 C-37.79772361 67.91850187 -42.21318046 65.89006781 -46.6875 63.375 C-47.37328125 62.99085937 -48.0590625 62.60671875 -48.765625 62.2109375 C-57.34462509 56.72783744 -61.41735686 47.87699619 -64.27734375 38.42578125 C-66.38968329 27.86408354 -64.41000401 17.05747181 -58.5 8.125 C-51.2691168 -1.44528659 -42.70623405 -7.59229615 -30.74609375 -9.43359375 C-19.23116437 -10.15419597 -9.09803172 -6.96442251 0 0 Z " fill="#ED0008" transform="translate(1568.6875,1702.625)"/>
</svg>
