<?xml version="1.0" encoding="UTF-8"?>
<svg version="1.1" xmlns="http://www.w3.org/2000/svg" width="1902" height="1771">
<path d="M0 0 C1.88785318 0.79903957 3.77604456 1.59728049 5.66455078 2.39477539 C9.57306393 4.04597236 13.4801239 5.70054043 17.38623047 7.35742188 C22.90824354 9.69733793 28.43855521 12.01696298 33.97265625 14.328125 C34.84718445 14.69334763 35.72171265 15.05857025 36.6227417 15.43486023 C38.38565321 16.17094501 40.14859263 16.90696297 41.91156006 17.64291382 C58.3540599 24.50963459 74.77195047 31.43384203 91.18304443 38.37521362 C106.83855132 44.99517414 122.52214387 51.54589005 138.21688843 58.07220459 C153.65625686 64.49343576 169.07007784 70.97274138 184.46923828 77.48974609 C200.02515086 84.07161828 215.6097686 90.58245966 231.20617676 97.06771851 C245.02061517 102.81310242 258.81846251 108.59600592 272.59817505 114.42419434 C278.14799032 116.771319 283.69909973 119.11538193 289.25010681 121.45968628 C293.60693342 123.29972035 297.96337382 125.14065261 302.31884766 126.98388672 C333.28286905 140.07957741 363.52337844 151.86790791 397.1875 155.8125 C398.33347656 155.95558594 399.47945312 156.09867188 400.66015625 156.24609375 C445.11593431 160.62144979 487.04610905 145.929818 527.1875 128.8125 C528.96930664 128.05477295 528.96930664 128.05477295 530.78710938 127.28173828 C535.12121352 125.43427816 539.45153084 123.57844064 543.77587891 121.70825195 C555.18098635 116.7816761 566.65269163 112.01758054 578.125 107.25 C594.24955292 100.54765708 610.35572732 93.80436745 626.4375 87 C641.16443842 80.77000053 655.90605539 74.57768843 670.6706543 68.4375 C672.13591011 67.82813741 673.60116073 67.21876234 675.06640625 66.609375 C676.16353188 66.1531073 676.16353188 66.1531073 677.28282166 65.68762207 C686.6113617 61.80645319 695.93053537 57.90289781 705.25 54 C706.1494635 53.62334198 707.048927 53.24668396 707.97564697 52.85861206 C712.55040696 50.94286297 717.12508162 49.02691026 721.69970703 47.11083984 C729.80163952 43.71748923 737.9043707 40.32604669 746.00704956 36.93447876 C750.48389983 35.06056576 754.96069721 33.18652642 759.4375 31.3125 C761.22916641 30.5624994 763.02083308 29.8124994 764.8125 29.0625 C765.699375 28.69125 766.58625 28.32 767.5 27.9375 C775.5625 24.5625 775.5625 24.5625 778.24963379 23.43769836 C780.04256396 22.68713939 781.83545129 21.93647806 783.6282959 21.18571472 C788.08778646 19.31842826 792.54799035 17.45288573 797.00976562 15.59106445 C805.30778667 12.12631657 813.59787592 8.64558744 821.86364746 5.10446167 C825.71057109 3.45763682 829.561549 1.82041421 833.4128418 0.18383789 C835.22363247 -0.58875551 837.03249177 -1.36589598 838.83911133 -2.14819336 C866.63979235 -14.18242468 893.98664741 -20.25081731 923.33496094 -8.93359375 C948.15021018 1.06052877 966.7912545 20.13725721 977.33105469 44.64257812 C986.90618695 68.90249133 985.86709696 93.82864677 976.1875 117.8125 C972.55699038 125.97917724 968.47812229 133.93405999 964.43142533 141.9000814 C962.87529147 144.97028288 961.33369219 148.04776978 959.79045105 151.12446594 C956.86664004 156.94845809 953.93101945 162.76640544 950.9905383 168.58199579 C946.70923642 177.05065929 942.44540834 185.52811546 938.1821928 194.00589466 C937.54250113 195.27792344 936.90280599 196.54995046 936.2631073 197.82197571 C935.79296747 198.75693075 935.79296747 198.75693075 935.31332988 199.71077377 C933.20356808 203.90524379 931.08804876 208.096775 928.97041321 212.28727722 C927.83809544 214.53225264 926.70578607 216.77723229 925.57348633 219.0222168 C924.84745964 220.45473785 924.84745964 220.45473785 924.10676575 221.91619873 C920.63929745 228.79908451 917.30524856 235.73949133 913.99235535 242.6978302 C908.44064919 254.34790893 902.70745702 265.90119587 896.92382812 277.4375 C895.84629072 279.59064865 894.76893955 281.7438905 893.6917572 283.8972168 C891.39697534 288.48365331 889.10095937 293.06946895 886.80393982 297.65478516 C883.47070755 304.30872444 880.14002775 310.96393818 876.8100999 317.61953163 C871.38735223 328.45800275 865.96310874 339.29572444 860.53759766 350.1328125 C860.21474535 350.7776893 859.89189304 351.42256611 859.55925733 352.08698463 C856.94104032 357.31667685 854.3227494 362.54633206 851.70445538 367.77598572 C849.41540312 372.34803567 847.12638042 376.92010041 844.83740234 381.4921875 C844.51495523 382.1362536 844.19250811 382.78031971 843.86028987 383.44390297 C838.45132633 394.24806388 833.04398332 405.05303508 827.63775778 415.85856628 C824.03073778 423.0677815 820.42169275 430.27597745 816.81111908 437.4834137 C814.55313036 441.99184846 812.29685947 446.50114138 810.04101753 451.01065063 C809.00786055 453.07511777 807.97402283 455.13924442 806.93939018 457.20297241 C801.76446734 467.52602885 796.65441059 477.87334294 791.6932373 488.30102539 C786.21573893 499.81370401 780.54565324 511.22413981 774.83203125 522.62109375 C773.74464179 524.7939466 772.65743851 526.96689263 771.57040405 529.1399231 C768.95544052 534.36631891 766.33868031 539.59181212 763.72116828 544.81693196 C760.65642695 550.93519136 757.59440284 557.05480934 754.53259671 563.17453802 C749.05993455 574.11283764 743.58577659 585.05038785 738.11035156 595.98730469 C737.62158718 596.96359174 737.62158718 596.96359174 737.12294877 597.95960176 C734.48046317 603.2378311 731.83790369 608.51602345 729.19534111 613.79421425 C726.88507565 618.40869063 724.57483974 623.0231818 722.26464844 627.63769531 C721.93921433 628.28773541 721.61378021 628.9377755 721.27848446 629.60751379 C715.81980075 640.51111598 710.36273699 651.41552817 704.90679073 662.32050037 C701.85789488 668.4142508 698.80815385 674.50757536 695.7562561 680.599823 C692.8849426 686.33164762 690.01550823 692.06440913 687.14741898 697.79784775 C686.10458652 699.8816655 685.06107317 701.9651427 684.01676559 704.04822159 C678.33364625 715.38531773 672.75476435 726.76310293 667.30635309 738.21489048 C662.31256966 748.68954484 657.12432238 759.06434424 651.92382812 769.4375 C650.84629072 771.59064865 649.76893955 773.7438905 648.6917572 775.8972168 C646.39697534 780.48365331 644.10095937 785.06946895 641.80393982 789.65478516 C638.47070755 796.30872444 635.14002775 802.96393818 631.8100999 809.61953163 C626.38735223 820.45800275 620.96310874 831.29572444 615.53759766 842.1328125 C615.21474535 842.7776893 614.89189304 843.42256611 614.55925733 844.08698463 C611.94104032 849.31667685 609.3227494 854.54633206 606.70445538 859.77598572 C604.41540312 864.34803567 602.12638042 868.92010041 599.83740234 873.4921875 C599.51495523 874.1362536 599.19250811 874.78031971 598.86028987 875.44390297 C593.45132633 886.24806388 588.04398332 897.05303508 582.63775778 907.85856628 C579.03073778 915.0677815 575.42169275 922.27597745 571.81111908 929.4834137 C569.55313036 933.99184846 567.29685947 938.50114138 565.04101753 943.01065063 C564.00786055 945.07511777 562.97402283 947.13924442 561.93939018 949.20297241 C555.71722274 961.61509675 549.62533602 974.08104857 543.66589642 986.62155533 C539.75063254 994.84999751 535.69978629 1003.01176305 531.64453125 1011.171875 C531.01268701 1012.443549 531.01268701 1012.443549 530.36807823 1013.74091339 C528.15025279 1018.20284376 525.9297317 1022.6634215 523.70727539 1027.12304688 C521.89147701 1030.7680946 520.0815909 1034.41598941 518.27661133 1038.06640625 C516.06188907 1042.54540698 513.83720599 1047.01932713 511.60547447 1051.48987579 C510.76850482 1053.1704617 509.93489542 1054.85272605 509.10495949 1056.53679657 C496.6573746 1081.77495626 479.15491297 1102.56386573 452.125 1112.625 C426.30327289 1121.13671249 398.54153303 1121.26014206 373.8125 1108.9375 C363.73499045 1103.71962411 355.46167842 1097.60401801 347.1875 1089.8125 C346.5584375 1089.25949219 345.929375 1088.70648437 345.28125 1088.13671875 C333.86599387 1077.68138189 327.66256409 1061.1814575 320.8972168 1047.58837891 C319.78140303 1045.35754356 318.66506562 1043.12697007 317.54824829 1040.89663696 C314.84466548 1035.49405104 312.14660729 1030.08874007 309.45112833 1024.68210907 C306.29897738 1018.36013313 303.1402742 1012.04143862 299.98131333 1005.72286348 C294.33432558 994.42720422 288.69297183 983.12874086 283.05493164 971.82861328 C277.61082679 960.91720108 272.16313058 950.00759272 266.71118164 939.10009766 C266.37599837 938.42950835 266.0408151 937.75891905 265.69547477 937.06800885 C265.02001472 935.71664608 264.34455441 934.36528344 263.66909384 933.01392093 C263.33571737 932.34694842 263.0023409 931.67997592 262.65886211 930.99279213 C262.3262115 930.32727492 261.99356089 929.6617577 261.65082995 928.9760733 C256.4214342 918.51355615 251.19509359 908.0495127 245.96916335 897.58526421 C244.08970028 893.82194191 242.20986045 890.0588081 240.32974752 886.29581042 C237.05818445 879.74777614 233.78876675 873.19867592 230.52150345 866.64849472 C229.44475375 864.49053688 228.36737536 862.33289258 227.28926659 860.1756134 C221.99285097 849.57640522 216.75252915 838.95629666 211.66157532 828.25668335 C206.22369216 816.82841342 200.59578005 805.50104788 194.92382812 794.1875 C193.84629072 792.03435135 192.76893955 789.8811095 191.6917572 787.7277832 C189.39697534 783.14134669 187.10095937 778.55553105 184.80393982 773.97021484 C181.47070755 767.31627556 178.14002775 760.66106182 174.8100999 754.00546837 C169.38735223 743.16699725 163.96310874 732.32927556 158.53759766 721.4921875 C158.21474535 720.8473107 157.89189304 720.20243389 157.55925733 719.53801537 C155.26871222 714.96282322 152.97811248 710.38765842 150.6875 705.8125 C148.07076306 700.58595638 145.4540509 695.35940037 142.83740234 690.1328125 C142.35373167 689.16671334 142.35373167 689.16671334 141.86028987 688.18109703 C136.45132633 677.37693612 131.04398332 666.57196492 125.63775778 655.76643372 C122.03073778 648.5572185 118.42169275 641.34902255 114.81111908 634.1415863 C112.55313036 629.63315154 110.29685947 625.12385862 108.04101753 620.61434937 C107.00786055 618.54988223 105.97402283 616.48575558 104.93939018 614.42202759 C99.76446734 604.09897115 94.65441059 593.75165706 89.6932373 583.32397461 C84.21573893 571.81129599 78.54565324 560.40086019 72.83203125 549.00390625 C71.74464179 546.8310534 70.65743851 544.65810737 69.57040405 542.4850769 C66.95544052 537.25868109 64.33868031 532.03318788 61.72116828 526.80806804 C58.65642695 520.68980864 55.59440284 514.57019066 52.53259671 508.45046198 C47.05993455 497.51216236 41.58577659 486.57461215 36.11035156 475.63769531 C35.78450864 474.98683728 35.45866572 474.33597924 35.12294877 473.66539824 C32.81117317 469.04774514 30.49934295 464.43011938 28.1875 459.8125 C25.54651177 454.53745377 22.90554831 449.26239515 20.26464844 443.98730469 C19.93921433 443.33726459 19.61378021 442.6872245 19.27848446 442.01748621 C13.81980075 431.11388402 8.36273699 420.20947183 2.90679073 409.30449963 C-0.14210512 403.2107492 -3.19184615 397.11742464 -6.2437439 391.025177 C-9.1150574 385.29335238 -11.98449177 379.56059087 -14.85258102 373.82715225 C-15.89541348 371.7433345 -16.93892683 369.6598573 -17.98323441 367.57677841 C-23.68180049 356.20886799 -29.27460497 344.79965181 -34.73768395 333.31666833 C-39.49665442 323.33479316 -44.44747926 313.45309209 -49.42114258 303.5769043 C-50.42801798 301.57329807 -51.43466353 299.56957632 -52.44110107 297.56575012 C-54.58216006 293.30349745 -56.72434489 289.04181334 -58.86731911 284.7805233 C-62.26382799 278.02539064 -65.65481381 271.26749488 -69.04460144 264.50898743 C-69.90853231 262.78658176 -69.90853231 262.78658176 -70.78991634 261.02938002 C-71.96604669 258.68452235 -73.14216485 256.33965856 -74.31827104 253.99478877 C-77.31807862 248.01411425 -80.31828801 242.03364152 -83.3190918 236.0534668 C-83.61933074 235.45512828 -83.91956968 234.85678976 -84.22890677 234.24031977 C-89.1039952 224.5254571 -93.98638111 214.81427755 -98.87103084 205.10421958 C-103.91793011 195.07110421 -108.95532263 185.03325266 -113.98494834 174.99146396 C-116.79662321 169.37873158 -119.61254502 163.76822671 -122.43915749 158.16300011 C-125.09513963 152.89599302 -127.7396062 147.62335932 -130.37573242 142.34638786 C-131.33813601 140.42479752 -132.30458828 138.50522802 -133.27564049 136.58799362 C-147.62231773 108.24535694 -154.54452963 81.14567261 -145.1875 49.8125 C-140.62487208 37.20021675 -133.92390824 25.65344177 -124.8125 15.8125 C-124.06613281 14.97460938 -123.31976563 14.13671875 -122.55078125 13.2734375 C-88.23902719 -23.36357593 -41.99973063 -17.9248323 0 0 Z " fill="#FEFEFE" transform="translate(538.8125,15.1875)"/>
<path d="M0 0 C2.20172317 2.07284357 2.20172317 2.07284357 4.76953125 4.0625 C17.87804226 14.62566907 27.59313814 31.21794971 35.18359375 46.0078125 C35.663125 46.93722656 36.14265625 47.86664062 36.63671875 48.82421875 C42.21861649 60.39429159 45.95167529 72.82086678 48.49609375 85.3828125 C48.65537354 86.1658374 48.81465332 86.9488623 48.97875977 87.75561523 C51.10131459 98.95545411 51.33497335 110.2061111 51.34472656 121.57519531 C51.34936872 122.99613571 51.35439519 124.41707489 51.35977173 125.8380127 C51.37276924 129.66523737 51.37931647 133.4924446 51.38378239 137.31968784 C51.38673566 139.72471147 51.39084457 142.12973058 51.39528656 144.53475189 C51.40893248 152.099565 51.41861149 159.66436747 51.42248845 167.22919202 C51.42695257 175.88621818 51.44443587 184.54308515 51.47348905 193.20006299 C51.49530372 199.94033018 51.50520325 206.68055326 51.50652957 213.42085528 C51.50756423 217.42332547 51.513178 221.42564551 51.53134918 225.4280777 C51.75146945 276.89407415 41.19247422 319.07772652 5.18359375 357.0078125 C4.56484375 357.70261719 3.94609375 358.39742187 3.30859375 359.11328125 C-14.98334217 378.9159351 -42.29150124 390.34981017 -67.81640625 397.0078125 C-68.50025391 397.19005371 -69.18410156 397.37229492 -69.88867188 397.56005859 C-91.95240764 403.13142906 -119.72641849 402.04887349 -141.81640625 397.0078125 C-142.60708496 396.83088867 -143.39776367 396.65396484 -144.21240234 396.47167969 C-178.43859148 388.60312161 -213.92844589 371.00687191 -233.3359375 340.71875 C-237.8476366 332.45722184 -238.05078621 323.62002308 -235.56640625 314.6328125 C-232.58130611 306.08642991 -227.70185578 301.30798209 -219.81640625 297.0078125 C-211.54285561 293.818141 -203.72266357 292.96298771 -195.2890625 295.8828125 C-188.44103389 298.92169115 -183.83754613 303.56746799 -178.81640625 309.0078125 C-162.10240785 326.26535556 -140.59360759 335.99166186 -116.52172852 337.16894531 C-96.70736787 337.41446581 -79.28349158 337.17735753 -60.81640625 329.0078125 C-59.95660156 328.63914062 -59.09679688 328.27046875 -58.2109375 327.890625 C-38.08733854 318.61265409 -25.24525147 301.962995 -16.81640625 282.0078125 C-15.17323297 277.39335537 -13.89539801 272.78377077 -12.81640625 268.0078125 C-12.59210938 267.03714844 -12.3678125 266.06648438 -12.13671875 265.06640625 C-10.41848696 256.41640376 -10.62926324 247.78274022 -10.81640625 239.0078125 C-11.39003906 239.46929688 -11.96367188 239.93078125 -12.5546875 240.40625 C-31.63596709 255.05742978 -55.0980258 264.27093225 -78.81640625 268.0078125 C-80.49089844 268.28044922 -80.49089844 268.28044922 -82.19921875 268.55859375 C-88.99033702 269.37085529 -95.86089493 269.25135617 -102.69140625 269.2578125 C-103.42839752 269.25881958 -104.16538879 269.25982666 -104.92471313 269.26086426 C-116.14968066 269.25048589 -126.88097604 268.6870504 -137.81640625 266.0078125 C-139.01136719 265.71777344 -140.20632813 265.42773438 -141.4375 265.12890625 C-144.94176172 264.19521779 -148.37269024 263.14412283 -151.81640625 262.0078125 C-152.74718994 261.70085449 -152.74718994 261.70085449 -153.69677734 261.38769531 C-173.57460381 254.70682824 -191.30427094 244.33990688 -206.64453125 230.02734375 C-208.5484523 228.25697112 -210.49531776 226.59395482 -212.50390625 224.9453125 C-239.19497817 202.03186329 -254.43732641 164.0515784 -257.60546875 129.79003906 C-260.7818543 87.89410186 -248.27951716 46.02762899 -220.81640625 14.0078125 C-220.01976562 13.07066406 -219.223125 12.13351562 -218.40234375 11.16796875 C-213.87705529 5.99732128 -209.18434599 1.29535866 -203.81640625 -2.9921875 C-203.27129395 -3.42789062 -202.72618164 -3.86359375 -202.16455078 -4.3125 C-184.98086845 -17.92477893 -166.75160481 -27.4795154 -145.81640625 -33.9921875 C-144.85605469 -34.29253906 -143.89570312 -34.59289063 -142.90625 -34.90234375 C-94.06127715 -49.21773344 -36.83240221 -34.59820104 0 0 Z M-166.81640625 46.0078125 C-167.51894531 46.63042969 -168.22148438 47.25304688 -168.9453125 47.89453125 C-185.67648694 63.51247687 -196.19455386 87.49843784 -197.01953125 110.3203125 C-197.48961758 138.48057951 -187.8899511 162.39226216 -168.44140625 182.6953125 C-148.70898017 201.82368472 -124.06147195 208.6080084 -97.23828125 208.28125 C-72.5932713 207.55129516 -50.75806847 195.35667107 -33.81640625 178.0078125 C-17.28203564 160.16516677 -8.67589262 135.99094193 -9.47265625 111.75390625 C-10.98513163 85.82035523 -22.26913375 62.68729786 -41.06640625 44.8203125 C-49.84763731 37.09381031 -59.9477308 31.27874271 -70.81640625 27.0078125 C-71.75226563 26.63785156 -72.688125 26.26789063 -73.65234375 25.88671875 C-105.71255393 14.63679924 -142.10137443 23.18444701 -166.81640625 46.0078125 Z " fill="#FEFEFE" transform="translate(1111.81640625,1370.9921875)"/>
<path d="M0 0 C0.81726562 0.60972656 1.63453125 1.21945312 2.4765625 1.84765625 C36.51877024 28.16282318 57.17551681 64.9265444 63.57100296 107.29471016 C64.33015399 113.85157262 64.29564759 120.4077103 64.29052734 126.99780273 C64.29652778 128.56006689 64.30333674 130.12232811 64.31088257 131.68458557 C64.32840192 135.89178649 64.33323212 140.09890583 64.33451414 144.30613971 C64.33594504 146.94751545 64.34023235 149.58887107 64.34550858 152.23024178 C64.3639668 161.48220233 64.37218503 170.73410562 64.37060547 179.98608398 C64.36940725 188.54918453 64.39045765 197.11203175 64.4220928 205.67506832 C64.44843687 213.07520025 64.45896515 220.47525041 64.45769465 227.87542874 C64.45719003 232.2735593 64.46258992 236.67146468 64.48405075 241.06954765 C64.61532159 269.9852026 62.16432926 296.36431352 50 323 C49.51015625 324.08539062 49.0203125 325.17078125 48.515625 326.2890625 C42.0540015 339.92001112 33.54349575 352.19829619 23 363 C22.175 363.845625 21.35 364.69125 20.5 365.5625 C19.675 366.366875 18.85 367.17125 18 368 C17.40316406 368.64195312 16.80632812 369.28390625 16.19140625 369.9453125 C-6.84920473 394.21193764 -43.46236343 409.58797399 -76.70263672 411.17700195 C-116.75645315 411.79416021 -154.45880423 406.61206823 -188 383 C-188.60602051 382.58041016 -189.21204102 382.16082031 -189.83642578 381.72851562 C-193.94167107 378.88470605 -197.98573157 375.97086703 -202 373 C-202.68707031 372.50242187 -203.37414063 372.00484375 -204.08203125 371.4921875 C-213.04829723 364.47876165 -222.30304222 352.38444492 -224 341 C-224.17008068 331.05028027 -222.94441873 322.59074797 -216.20703125 314.97265625 C-209.45176266 308.59492762 -201.36899538 304.85386316 -192 305 C-183.14214175 305.98420647 -175.97767768 309.37608689 -170 316 C-169.071875 316.886875 -168.14375 317.77375 -167.1875 318.6875 C-165 321 -165 321 -165 323 C-164.48308594 323.22171875 -163.96617188 323.4434375 -163.43359375 323.671875 C-160.72429068 325.15046736 -158.41825959 326.90305676 -155.97753906 328.78271484 C-131.84545921 347.27249046 -100.94212887 351.13134781 -71.26171875 347.5390625 C-67.73535697 346.89515111 -64.41904334 346.07351479 -61 345 C-60.35998047 344.80132324 -59.71996094 344.60264648 -59.06054688 344.39794922 C-44.72284026 339.82754847 -32.70759617 332.70759617 -22 322 C-21.37609375 321.37609375 -20.7521875 320.7521875 -20.109375 320.109375 C-1.90464277 300.59259 2.19114582 275.66020157 3 250 C2.18660156 250.54527344 1.37320312 251.09054687 0.53515625 251.65234375 C-27.07460921 269.92658027 -56.53404568 280.47494962 -89.9375 280.375 C-90.65788452 280.37412384 -91.37826904 280.37324768 -92.1204834 280.37234497 C-135.09604608 280.20088413 -173.4445464 262.20622792 -203.53759766 231.88183594 C-209.82507392 225.38589789 -215.2737885 218.70291793 -220 211 C-220.38446289 210.37416016 -220.76892578 209.74832031 -221.16503906 209.10351562 C-243.79280509 171.66992739 -250.09486691 129.41179414 -240.09228516 86.82470703 C-230.47523431 48.3220833 -204.41630872 13.94249293 -170.69140625 -6.68359375 C-118.69507682 -37.31369812 -49.02900575 -37.1970848 0 0 Z M-151 55 C-151.58652344 55.4434375 -152.17304687 55.886875 -152.77734375 56.34375 C-170.42180426 69.96112187 -180.14373676 93.40410609 -183.375 114.875 C-186.12684518 138.97736816 -180.04450566 163.28229119 -165.046875 182.5234375 C-164.03367187 183.74933594 -164.03367187 183.74933594 -163 185 C-162.32453125 185.83789062 -161.6490625 186.67578125 -160.953125 187.5390625 C-146.42885541 204.66073796 -124.43939452 216.6601257 -102 219 C-72.47508386 220.6245699 -47.630451 213.54330535 -25.28125 193.5703125 C-8.31554962 177.51008489 2.20796096 155.93986064 3.34765625 132.48828125 C4.10849434 103.46130691 -5.68400069 79.12913337 -25.5625 58 C-59.85746375 24.6983355 -115.26038661 23.93352207 -151 55 Z " fill="#FEFEFE" transform="translate(1429,1360)"/>
<path d="M0 0 C0.76663316 -0.00226556 1.53326632 -0.00453111 2.32313079 -0.00686532 C4.87613659 -0.01316414 7.42908875 -0.01237862 9.98210144 -0.0115509 C11.81910266 -0.01454496 13.65610326 -0.01794806 15.49310303 -0.02172852 C20.47254336 -0.03054752 25.4519665 -0.03290575 30.43141389 -0.0335443 C33.54536953 -0.03425599 36.65932082 -0.03639256 39.77327538 -0.03904152 C50.64529573 -0.04828795 61.51730384 -0.05237728 72.389328 -0.05158997 C82.51001672 -0.05098934 92.63065211 -0.06153996 102.75132734 -0.07733363 C111.45219225 -0.09042588 120.15303976 -0.09577315 128.85391444 -0.09513456 C134.04533717 -0.09488007 139.23671249 -0.09770417 144.42812538 -0.10831261 C149.312716 -0.11802196 154.19721414 -0.11805334 159.08180809 -0.11079597 C160.86916616 -0.10975366 162.65653008 -0.11209193 164.44387817 -0.11815643 C189.43987541 -0.19744012 189.43987541 -0.19744012 200.08830261 8.13371277 C202.4761313 10.6120276 204.32321951 13.18608225 206.08830261 16.13371277 C206.70705261 17.14433777 207.32580261 18.15496277 207.96330261 19.19621277 C210.58047053 26.14360396 210.2116818 34.55782811 208.02189636 41.52824402 C204.30142658 49.5875723 199.26729311 55.68417511 190.90080261 59.00871277 C185.54061136 60.59040855 180.9363468 61.25830459 175.33688354 61.25396729 C174.67107594 61.25482171 174.00526833 61.25567613 173.31928474 61.25655645 C171.09602279 61.25819902 168.87283687 61.25270997 166.64958191 61.24723816 C165.0528056 61.246956 163.45602916 61.24711459 161.85925293 61.24768066 C157.52909722 61.24796751 153.19896922 61.242089 148.86881995 61.23510671 C144.34178797 61.22885439 139.81475536 61.22826788 135.28771973 61.2270813 C126.71721603 61.22397353 118.14672509 61.21576759 109.57622701 61.20573181 C97.99343753 61.19246321 86.41064455 61.18706629 74.82784939 61.18122959 C56.58132424 61.17182735 38.33482602 61.15190472 20.08830261 61.13371277 C17.77830261 91.82371277 15.46830261 122.51371277 13.08830261 154.13371277 C21.00830261 151.49371277 28.92830261 148.85371277 37.08830261 146.13371277 C44.11039853 144.60015159 51.00032436 143.18857409 58.08830261 142.13371277 C58.82113464 142.01801941 59.55396667 141.90232605 60.30900574 141.78312683 C92.48834477 136.831329 126.48751876 140.09284165 156.08830261 154.13371277 C157.21365417 154.65707214 158.33900574 155.18043152 159.49845886 155.71965027 C194.169642 172.395018 222.88022155 202.62657816 235.77531433 239.0756073 C245.41598844 267.25445134 248.15849018 299.17836641 240.08830261 328.13371277 C239.85224304 328.99319519 239.61618347 329.85267761 239.37297058 330.73820496 C234.35875243 348.40920199 226.57122365 364.73300032 215.08830261 379.13371277 C214.50049011 379.92261902 213.91267761 380.71152527 213.30705261 381.52433777 C187.93702161 414.8493785 150.51456107 433.03120321 109.87809753 439.65715027 C105.9318102 440.15339152 102.05447037 440.31202605 98.08439636 440.33683777 C97.33247513 440.34385208 96.58055389 440.35086639 95.80584717 440.35809326 C93.37910443 440.37556307 90.95260602 440.38194997 88.52580261 440.38371277 C87.69572693 440.38438751 86.86565125 440.38506226 86.01042175 440.38575745 C72.82340596 440.36873435 60.04874569 439.75082352 47.08830261 437.13371277 C46.21367371 436.96210632 45.3390448 436.79049988 44.43791199 436.61369324 C20.66338855 431.81850727 -2.13318951 422.7514817 -20.91169739 407.13371277 C-21.83337708 406.37574402 -22.75505676 405.61777527 -23.70466614 404.83683777 C-33.94021785 396.00163657 -43.5773281 385.13682063 -47.91169739 372.13371277 C-48.73212252 360.91675276 -47.84072869 352.87218291 -40.78669739 343.88371277 C-34.68511478 337.37968535 -27.41302932 334.47805284 -18.57575989 334.06730652 C-10.16366029 334.27699229 -3.243998 336.98941432 2.88298035 342.85050964 C4.61323334 344.72783289 6.29272345 346.6406753 7.96330261 348.57121277 C13.21154885 354.37439481 17.94599065 358.76262155 25.08830261 362.13371277 C26.33128204 362.76888415 27.57339823 363.40574635 28.81486511 364.04386902 C57.06147292 378.25082196 90.54055472 384.90473011 121.24064636 374.80949402 C133.05980926 370.69397894 143.46923375 365.19853352 153.08830261 357.13371277 C153.81662292 356.56265808 154.54494324 355.99160339 155.29533386 355.40324402 C171.42992426 342.15083964 180.62712514 321.59098755 183.08830261 301.13371277 C185.0775222 277.49812776 180.28313562 254.08916687 164.88517761 235.46965027 C162.66810185 232.97355477 160.39430613 230.54755098 158.08830261 228.13371277 C157.26072449 227.19398621 157.26072449 227.19398621 156.41642761 226.23527527 C151.2170111 220.54680473 144.73676611 216.91797659 138.08830261 213.13371277 C137.27490417 212.65804871 136.46150574 212.18238464 135.62345886 211.69230652 C110.8581558 198.18780793 80.50076222 198.80988893 54.0677948 206.5287323 C32.92889963 212.98928758 12.93969696 222.85334486 -0.71638489 240.64152527 C-5.65060525 246.24300674 -12.1259411 249.69993694 -19.54060364 250.37199402 C-28.93170963 250.60958525 -36.80496234 248.9352557 -44.28669739 243.00871277 C-49.61271214 237.93423465 -52.81759579 231.37861642 -53.91169739 224.13371277 C-53.90807402 221.49526652 -53.83129981 218.91498453 -53.6809845 216.28434753 C-53.63503867 215.43455354 -53.58909285 214.58475954 -53.54175472 213.70921421 C-52.63510748 198.29640592 -51.18465872 182.91425233 -49.8472302 167.53434825 C-49.51784322 163.74189651 -49.19067346 159.9492547 -48.86345524 156.15661532 C-48.09144151 147.20931904 -47.31564919 138.26235603 -46.53742981 129.31559753 C-45.73737839 120.11706389 -44.94383684 110.91798473 -44.15343434 101.71861738 C-43.4709557 93.7780773 -42.78443187 85.83789394 -42.09469837 77.89798075 C-41.68433839 73.17362623 -41.27547343 68.44915505 -40.87053108 63.72433281 C-40.49022185 59.28896824 -40.10483283 54.85407306 -39.71564102 50.41947937 C-39.5743791 48.80039444 -39.43485755 47.18115649 -39.29728127 45.56175423 C-36.85052056 16.80511679 -36.85052056 16.80511679 -27.98591614 8.28215027 C-19.41605069 1.526101 -10.70762691 -0.02354416 0 0 Z " fill="#FEFEFE" transform="translate(1657.9116973876953,1330.8662872314453)"/>
<path d="M0 0 C7.59773526 7.77442678 9.4527925 16.22888129 9.38095093 26.75621033 C9.3856309 27.81685827 9.39031087 28.87750622 9.39513266 29.97029501 C9.40706703 33.51279582 9.39763096 37.05490865 9.38818359 40.59741211 C9.39225019 43.14240748 9.39759256 45.68740109 9.40411377 48.23239136 C9.41636892 54.42269461 9.41457986 60.61285507 9.40587585 66.80316018 C9.39908742 71.84097149 9.3981876 76.87875227 9.4014473 81.91656685 C9.401907 82.63494392 9.40236669 83.353321 9.40284032 84.09346708 C9.40379957 85.55317438 9.40477221 87.01288168 9.4057581 88.47258896 C9.4143084 102.15474623 9.4044864 115.83684316 9.388357 129.51899052 C9.3749799 141.22794133 9.37726102 152.93680279 9.39111328 164.64575195 C9.40722005 178.2666019 9.41345741 191.88739883 9.40427649 205.50825697 C9.40332094 206.96520173 9.40237783 208.42214649 9.4014473 209.87909126 C9.40098447 210.59577203 9.40052164 211.31245281 9.40004479 212.05085118 C9.39746821 217.07090561 9.40179751 222.0909261 9.40888596 227.11097527 C9.41825033 233.89163013 9.41144517 240.67209227 9.39420319 247.45273972 C9.39026283 249.9305538 9.39132991 252.40838215 9.39799118 254.88619041 C9.49306753 293.87173494 -1.80683877 331.78862323 -28.8984375 360.7421875 C-30.76901399 362.75184031 -32.50773711 364.81760377 -34.25 366.9375 C-57.27122954 393.17958963 -93.87591057 409.12140281 -128 413 C-133.58664107 413.29414238 -139.15677011 413.3406948 -144.75 413.3125 C-145.50112061 413.31067719 -146.25224121 413.30885437 -147.02612305 413.30697632 C-157.98025072 413.26220428 -168.35277881 412.78190774 -179 410 C-180.48042233 409.64433797 -181.96089339 409.28887874 -183.44140625 408.93359375 C-193.79894102 406.342839 -203.40729168 402.65854892 -213 398 C-213.62471191 397.70254883 -214.24942383 397.40509766 -214.89306641 397.09863281 C-251.22869879 379.60685038 -278.81069954 346.44825466 -292.12744141 308.71630859 C-296.18508801 296.08469803 -299.11961975 282.54286482 -299.203125 269.2578125 C-299.20882507 268.53117401 -299.21452515 267.80453552 -299.22039795 267.05587769 C-299.22979519 265.5213158 -299.23636079 263.98673421 -299.24023438 262.45214844 C-299.2498295 260.16562941 -299.28085565 257.88005456 -299.3125 255.59375 C-299.59776849 215.7384351 -282.19938297 180.12743673 -256 151 C-255.35804688 150.27296875 -254.71609375 149.5459375 -254.0546875 148.796875 C-231.80448612 125.0500233 -200.46717406 111.65904505 -169 106 C-168.04867187 105.82210938 -167.09734375 105.64421875 -166.1171875 105.4609375 C-127.75084323 99.78771867 -87.76728956 110.06279829 -56 132 C-54.66418328 132.99668023 -53.33047839 133.99620469 -52 135 C-51.99853344 134.39592379 -51.99706688 133.79184757 -51.99555588 133.16946602 C-51.95842242 118.43654734 -51.89932142 103.70382838 -51.81609726 88.97110176 C-51.77637342 81.84629082 -51.74394732 74.72158926 -51.72900391 67.59667969 C-51.71595266 61.38292955 -51.68890023 55.16942078 -51.64538693 48.95580661 C-51.62284928 45.66898538 -51.6091738 42.38252368 -51.60811615 39.09561539 C-51.60574219 35.41640573 -51.5786251 31.73813004 -51.54589844 28.05908203 C-51.55344398 26.44390434 -51.55344398 26.44390434 -51.56114197 24.7960968 C-51.44587817 16.38684593 -49.48448789 9.79980501 -44.875 2.75 C-31.88086747 -9.67917025 -14.36122963 -11.57090159 0 0 Z M-207 189 C-207.92425781 189.83273437 -208.84851563 190.66546875 -209.80078125 191.5234375 C-225.31928573 206.16191614 -237.08971881 228.04504851 -238.12426758 249.58764648 C-238.79628295 274.93906226 -234.79554264 298.95589311 -217.3125 318.5625 C-215.88843672 320.05460726 -214.45286184 321.53591915 -213 323 C-212.154375 323.886875 -211.30875 324.77375 -210.4375 325.6875 C-209.2309375 326.8321875 -209.2309375 326.8321875 -208 328 C-207.46503906 328.51820313 -206.93007813 329.03640625 -206.37890625 329.5703125 C-187.47399412 347.09960732 -163.92360012 352.86309804 -138.74609375 352.27734375 C-120.384052 351.55626634 -103.6235779 345.03471675 -89 334 C-88.05511719 333.30003906 -87.11023438 332.60007812 -86.13671875 331.87890625 C-68.71334897 318.35952804 -56.41806506 297.66789379 -52.44140625 275.94921875 C-49.48053535 249.45859506 -54.07681663 223.49219032 -70.6875 202 C-88.51644092 180.63923078 -110.50757128 168.01480158 -138.32617188 165.38110352 C-163.26566959 163.54745574 -188.63023991 171.93641045 -207 189 Z " fill="#FEFEFE" transform="translate(499,1227)"/>
<path d="M0 0 C7.68740304 6.84359182 11.30382752 16.28168257 15.5 25.4375 C16.2937257 27.14338486 17.08850104 28.8487817 17.88427734 30.55371094 C20.27686571 35.69305668 22.64305263 40.84422561 25 46 C25.34389771 46.75218811 25.68779541 47.50437622 26.04211426 48.27935791 C28.85963266 54.44776136 31.66486885 60.62168575 34.45507812 66.80249023 C38.87332562 76.58158098 43.41029545 86.30032292 48 96 C53.58184735 107.79734443 59.04702098 119.64090929 64.41918945 131.53512573 C69.96793119 143.81391023 75.67293775 156.0149104 81.45898438 168.18359375 C85.04585086 175.74403504 88.51320425 183.34013777 91.80505371 191.03443909 C93.03066038 194.24970462 93.03066038 194.24970462 95 197 C104.37398804 176.81920431 113.73404193 156.6328681 122.96383667 136.38565063 C128.4476226 124.3591515 133.99513847 112.36301388 139.5625 100.375 C144.97305445 88.72380529 150.35915152 77.06288016 155.6612854 65.36190796 C156.55694421 63.38724884 157.45518123 61.41378335 158.35424805 59.44067383 C161.40435971 52.74285931 164.43279405 46.03655576 167.42155457 39.31109619 C169.00512655 35.75737095 170.60419104 32.21073614 172.20578003 28.6651001 C172.9732263 26.95681955 173.73413536 25.24558402 174.48782349 23.53118896 C184.3258166 1.17143431 184.3258166 1.17143431 195.4375 -4.5625 C204.52471138 -7.89132223 213.79684039 -7.79876284 222.640625 -3.80859375 C230.17985719 0.33346944 235.80375346 6.14900909 238.5234375 14.48828125 C241.68555305 31.15418533 235.17781793 44.00394658 227.9375 58.6875 C226.77691489 61.06949339 225.6176685 63.45207625 224.4609375 65.8359375 C224.16959427 66.43555801 223.87825104 67.03517853 223.57807922 67.65296936 C220.66118383 73.67034595 217.8517361 79.73514764 215.0625 85.8125 C210.8848023 94.91038373 206.67844096 103.9939171 202.4375 113.0625 C198.42595571 121.64261748 194.42697971 130.22837936 190.44921875 138.82421875 C190.05655823 139.67274414 189.66389771 140.52126953 189.25933838 141.39550781 C188.45422601 143.13546939 187.64913177 144.87543935 186.84405518 146.61541748 C180.13254954 161.12010586 173.38119065 175.60462939 166.56164551 190.05883789 C161.80366554 200.14484053 157.09462881 210.25177905 152.43359375 220.38305664 C149.83720979 226.02449023 147.23107092 231.6611645 144.60546875 237.2890625 C144.31562103 237.9104158 144.02577332 238.5317691 143.72714233 239.17195129 C142.2529081 242.33039601 140.77559222 245.48735965 139.29394531 248.64233398 C136.6096726 254.3643904 133.9447098 260.09198705 131.37101746 265.86480713 C130.23531848 268.41068182 129.08827981 270.95138255 127.94088745 273.49200439 C127.15342073 275.24908462 126.38313745 277.01383493 125.61352539 278.77880859 C120.98581339 289.00479314 115.58759265 296.69318265 105 301 C98.19675164 303.26774945 88.74192236 303.17477642 82.0625 300.4375 C69.53784522 293.71522766 64.59885122 282.54947152 59.07104492 270.12548828 C57.42715997 266.43215605 55.76349872 262.74773603 54.1015625 259.0625 C53.76066589 258.30549805 53.41976929 257.54849609 53.06854248 256.76855469 C49.62674477 249.14064381 46.07090152 241.56810217 42.5 234 C37.08867251 222.51943501 31.79287469 210.99127764 26.5625 199.42724609 C21.95544179 189.24612735 17.26303189 179.10903904 12.5 169 C7.09036802 157.51861962 1.79288827 145.99130765 -3.4375 134.42724609 C-8.3446047 123.58305586 -13.35693531 112.79258096 -18.43045044 102.02536011 C-24.00781734 90.18314123 -29.45128162 78.28328913 -34.83862305 66.35351562 C-37.39361328 60.70039647 -39.94949981 55.05128659 -42.6484375 49.46484375 C-43.02363525 48.6874585 -43.39883301 47.91007324 -43.78540039 47.10913086 C-44.70827961 45.21401473 -45.6443285 43.3253254 -46.58203125 41.4375 C-50.56517076 31.78140421 -50.93446732 22.21065825 -47.8125 12.1875 C-43.32931705 4.30328171 -38.51732957 -1.70111268 -30 -5.25 C-19.17536411 -7.95615897 -8.85932405 -7.19728464 0 0 Z " fill="#FEFEFE" transform="translate(599,1338)"/>
<path d="M0 0 C0.886875 0.721875 1.77375 1.44375 2.6875 2.1875 C7.97684535 8.62048758 10.20066582 14.8242015 11 23 C11.969375 22.3709375 12.93875 21.741875 13.9375 21.09375 C37.60223829 5.90308267 61.9754744 -3.69270043 90.1875 -6.25 C91.68470581 -6.3888562 91.68470581 -6.3888562 93.2121582 -6.53051758 C105.15035714 -7.48009101 114.78815946 -6.73020018 125 0 C131.57751318 5.75095843 134.812277 12.1446655 135.875 20.8125 C136.39414942 29.27781396 134.28671474 36.31386077 129 43 C122.49473546 50.19002923 115.72906049 53.86867612 106.0703125 54.67578125 C104.39449097 54.8298645 104.39449097 54.8298645 102.68481445 54.98706055 C101.51007568 55.09445557 100.33533691 55.20185059 99.125 55.3125 C78.02341125 57.48622887 59.09313227 63.75501896 43 78 C42.02289063 78.77601562 41.04578125 79.55203125 40.0390625 80.3515625 C36.91495703 82.95070368 34.42563042 85.94023817 32 89.1875 C31.56848633 89.76137451 31.13697266 90.33524902 30.69238281 90.92651367 C17.32219707 108.9331348 11.50268457 128.87769065 11.61523438 151.19628906 C11.61111354 152.54024715 11.60564387 153.88420166 11.59895325 155.22814941 C11.58736199 158.08774739 11.58469496 160.94715311 11.58930969 163.80677032 C11.59620449 168.33935627 11.58010999 172.8716957 11.56091309 177.40423584 C11.52011878 187.83577592 11.50853022 198.26730722 11.49738312 208.69891357 C11.4868424 218.28218546 11.46994262 227.86533621 11.42928743 237.44853377 C11.41105812 241.94396919 11.40699202 246.43911508 11.41422272 250.93457842 C11.41575535 253.73871837 11.40489469 256.54271602 11.39084435 259.34681702 C11.38500155 261.24465504 11.39388927 263.14252103 11.40339661 265.04034424 C11.31064325 278.09619022 8.57331025 288.42668975 -0.8125 297.8125 C-9.29310837 303.63252535 -16.64169431 305.31982962 -27 304 C-35.90359155 301.45261755 -41.53593784 295.37633367 -46.43167019 287.77800274 C-51.90427503 276.85785334 -50.69188439 264.7274465 -50.63110352 252.8215332 C-50.63624667 250.26296493 -50.64353093 247.70440021 -50.65278625 245.14584351 C-50.66934077 238.93996359 -50.66270303 232.73448944 -50.64469803 226.52862517 C-50.63062901 221.48319953 -50.62678842 216.43785938 -50.6301403 211.392416 C-50.63061775 210.6722711 -50.63109519 209.9521262 -50.6315871 209.21015873 C-50.6326135 207.7468917 -50.63366886 206.28362469 -50.63475286 204.8203577 C-50.64330397 191.90613569 -50.62669471 178.99206584 -50.59692383 166.07788086 C-50.56807223 153.5621909 -50.56101344 141.04671997 -50.57641602 128.53100586 C-50.5931936 114.87942146 -50.59719793 101.22794085 -50.57970566 87.57635373 C-50.57786138 86.11961473 -50.57602665 84.66287572 -50.57420158 83.2061367 C-50.57328949 82.48951019 -50.5723774 81.77288367 -50.57143768 81.03454119 C-50.56584334 75.99665066 -50.56912897 70.95881099 -50.57574654 65.92092323 C-50.58430464 59.13689155 -50.57126813 52.3532216 -50.54389763 45.56922531 C-50.53701831 43.08160398 -50.53691092 40.5939532 -50.54411316 38.10633278 C-50.55281959 34.70724184 -50.53683013 31.30912049 -50.5146637 27.91011047 C-50.52290446 26.92897398 -50.53114523 25.94783748 -50.53963572 24.93696958 C-50.46173385 18.45188385 -49.06970307 13.69794923 -46 8 C-45.443125 6.948125 -44.88625 5.89625 -44.3125 4.8125 C-39.18373289 -1.42518973 -31.3083388 -6.00459454 -23.21484375 -6.9609375 C-14.54009934 -7.11393123 -6.77181925 -5.52735605 0 0 Z " fill="#FEFEFE" transform="translate(50,1336)"/>
<path d="M0 0 C0.825 0.556875 1.65 1.11375 2.5 1.6875 C10.20774585 8.81716492 14.00341574 18.35205566 15.34765625 28.66796875 C15.74546474 39.54716611 12.15580842 48.87344237 5 57 C-4.74791141 66.28541926 -15.33654645 69.58616524 -28.55078125 69.34765625 C-34.67823379 69.03560401 -39.68702375 66.98648665 -45 64 C-45.68578125 63.61585937 -46.3715625 63.23171875 -47.078125 62.8359375 C-55.63304355 57.36822869 -60.28972063 48.18090808 -62.58984375 38.5234375 C-64.6423253 25.89578912 -61.34467158 15.28946915 -54 5 C-47.55655468 -3.11747768 -38.96703729 -7.28886195 -28.79296875 -8.78125 C-17.59665231 -9.65816429 -9.00201566 -6.54692048 0 0 Z " fill="#FEFEFE" transform="translate(1567,1702)"/>
</svg>
